<svg width="544" height="268" viewBox="0 0 544 268" fill="none" xmlns="http://www.w3.org/2000/svg">
<path d="M149.881 69.8076L150.979 69.9053C151.972 69.9867 152.469 70.3529 152.469 71.0039C152.469 71.9805 151.94 76.5785 150.882 84.7979C150.8 85.3675 149.995 86.1569 148.465 87.166C146.951 88.1589 145.047 89.1598 142.752 90.1689C137.055 92.6592 131.196 93.9043 125.174 93.9043C118.924 93.9043 113.13 92.651 107.791 90.1445C102.452 87.6217 98.1393 83.7399 94.8516 78.499C91.4661 73.1117 89.7734 66.4466 89.7734 58.5039C89.7734 46.0527 94.6237 36.515 104.324 29.8906C110.363 25.7565 117.516 23.6895 125.784 23.6895C132.978 23.6895 139.619 25.8867 145.706 30.2812C146.325 30.737 146.715 31.0299 146.878 31.1602C147.057 31.2904 147.228 31.3962 147.391 31.4775C147.57 31.5426 147.692 31.5345 147.757 31.4531C147.838 31.3555 147.879 31.1683 147.879 30.8916V28.2061C147.879 27.5713 147.985 27.1481 148.196 26.9365C148.424 26.7087 148.929 26.5947 149.71 26.5947C150.507 26.5947 151.085 26.7005 151.443 26.9121C151.801 27.1237 151.98 27.555 151.98 28.2061L151.565 48.0059C151.565 48.6243 151.435 49.015 151.175 49.1777C150.931 49.3242 150.385 49.3975 149.539 49.3975C148.709 49.3975 148.156 49.3161 147.879 49.1533C147.602 48.9743 147.464 48.6243 147.464 48.1035L147.879 38.8994C147.879 38.1507 146.813 36.9219 144.681 35.2129C142.565 33.5039 140.62 32.1204 138.846 31.0625C134.598 28.556 130.008 27.3027 125.076 27.3027C116.531 27.3027 109.866 31.4857 105.081 39.8516C102.07 45.125 100.564 51.4076 100.564 58.6992C100.564 62.8333 101.281 66.7884 102.713 70.5645C104.161 74.3405 106.106 77.612 108.548 80.3789C110.989 83.1296 113.903 85.3268 117.288 86.9707C120.69 88.5983 123.847 89.4121 126.761 89.4121C129.674 89.4121 132.164 89.2168 134.231 88.8262C136.315 88.4355 138.097 87.9554 139.578 87.3857C141.059 86.8161 142.394 86.222 143.582 85.6035C145.926 84.3503 147.122 83.4469 147.171 82.8936L148.465 71.2969C148.628 70.304 149.1 69.8076 149.881 69.8076ZM202.322 51.5947L210.428 51.3994C211.225 51.3994 211.624 51.9528 211.624 53.0596C211.624 54.1501 211.119 54.6953 210.11 54.6953H206.717C206.521 55.3138 206.424 57.682 206.424 61.7998L206.424 90.999C206.424 91.5036 206.245 91.9105 205.887 92.2197C205.529 92.5452 204.967 92.708 204.202 92.708C203.453 92.708 202.794 92.3418 202.225 91.6094C201.85 91.0723 201.329 90.2829 200.662 89.2412C200.011 88.1995 199.645 87.6543 199.563 87.6055C199.498 87.5566 199.262 87.6462 198.855 87.874C198.465 88.1019 198.09 88.3135 197.732 88.5088C197.391 88.6878 196.902 88.9401 196.268 89.2656C195.649 89.5911 195.031 89.8841 194.412 90.1445C193.81 90.4049 193.118 90.6898 192.337 90.999C191.556 91.3083 190.758 91.585 189.944 91.8291C189.131 92.057 188.292 92.2767 187.43 92.4883C183.393 93.416 179.446 93.3835 175.589 92.3906C170.853 91.1862 168.053 88.4437 167.19 84.1631C166.946 82.9587 166.824 81.6077 166.824 80.1104V68.9043C166.824 60.7337 166.718 55.9974 166.507 54.6953H162.527C161.909 54.6953 161.486 54.557 161.258 54.2803C161.03 53.9873 160.916 53.5234 160.916 52.8887C160.916 51.8958 161.453 51.3994 162.527 51.3994L170.73 51.5947L181.521 51.3994C182.319 51.3994 182.718 51.9528 182.718 53.0596C182.718 54.1501 182.221 54.6953 181.229 54.6953H175.125C174.913 55.3626 174.808 57.7308 174.808 61.7998V78.6943C174.808 83.7074 176.948 86.9626 181.229 88.46C182.433 88.8831 183.768 89.0947 185.232 89.0947C186.714 89.0947 188.089 88.9971 189.358 88.8018C190.628 88.6064 191.816 88.2728 192.923 87.8008C194.046 87.3125 194.998 86.694 195.779 85.9453C197.407 84.3665 198.286 82.0879 198.416 79.1094C198.481 78.1816 198.514 74.1533 198.514 67.0244C198.514 59.8955 198.351 55.7858 198.025 54.6953H192.63C192.011 54.6953 191.588 54.557 191.36 54.2803C191.132 53.9873 191.019 53.5234 191.019 52.8887C191.019 51.8958 191.556 51.3994 192.63 51.3994L202.322 51.5947ZM226.59 92.293L217.093 92.4883C216.295 92.4883 215.896 91.943 215.896 90.8525C215.896 89.7458 216.295 89.1924 217.093 89.1924L222.293 89.1924C222.57 88.7367 222.708 87.0358 222.708 84.0898V68.2939C222.708 60.1722 222.505 55.6393 222.098 54.6953H216.897C215.97 54.6953 215.506 54.1663 215.506 53.1084C215.506 52.0342 215.937 51.4971 216.8 51.4971L226.297 51.5947L237.405 51.3994C245.804 51.3994 250.89 53.6048 252.664 58.0156C253.087 59.0573 253.299 60.221 253.299 61.5068C253.299 66.1943 250.174 69.653 243.924 71.8828C243.794 71.9154 243.582 71.9886 243.289 72.1025C251.134 74.1208 255.138 78.7513 255.301 85.9941C255.366 87.752 255.464 88.7285 255.594 88.9238C255.74 89.1029 255.879 89.1924 256.009 89.1924H259.207C259.63 89.1924 259.899 89.3307 260.013 89.6074C260.143 89.8841 260.208 90.3805 260.208 91.0967C260.208 92.0244 259.769 92.4883 258.89 92.4883L247.903 92.293C247.366 92.293 247.098 92.0326 247.098 91.5117L247.098 87.8008C247.098 83.5527 246.854 80.859 246.365 79.7197C245.877 78.5804 245.356 77.6364 244.803 76.8877C244.249 76.139 243.582 75.5612 242.801 75.1543C240.945 74.1777 238.61 73.6895 235.794 73.6895H231.009C230.732 73.6895 230.594 73.8278 230.594 74.1045V79.1094C230.594 85.0501 230.797 88.4111 231.204 89.1924H237.186C237.853 89.1924 238.187 89.7458 238.187 90.8525C238.187 91.943 237.853 92.4883 237.186 92.4883L226.59 92.293ZM230.594 71.3945C230.919 71.4596 231.155 71.4922 231.302 71.4922H238.089C241.604 71.4922 243.859 69.7181 244.852 66.1699C245.145 65.1771 245.291 64.0703 245.291 62.8496C245.291 61.6126 244.998 60.4326 244.412 59.3096C243.826 58.1702 243.029 57.2262 242.02 56.4775C239.92 54.8988 237.381 54.1094 234.402 54.1094C233.198 54.1094 231.993 54.1745 230.789 54.3047C230.659 54.9557 230.594 57.0553 230.594 60.6035V71.3945ZM274.344 92.293L264.847 92.4883C264.049 92.4883 263.65 91.943 263.65 90.8525C263.65 89.7458 264.049 89.1924 264.847 89.1924H270.047C270.324 88.7367 270.462 87.0358 270.462 84.0898V68.2939C270.462 60.1722 270.258 55.6393 269.852 54.6953H264.651C263.724 54.6953 263.26 54.1663 263.26 53.1084C263.26 52.0342 263.691 51.4971 264.554 51.4971L274.051 51.5947L285.159 51.3994C293.558 51.3994 298.644 53.6048 300.418 58.0156C300.841 59.0573 301.053 60.221 301.053 61.5068C301.053 66.1943 297.928 69.653 291.678 71.8828C291.548 71.9154 291.336 71.9886 291.043 72.1025C298.888 74.1208 302.892 78.7513 303.055 85.9941C303.12 87.752 303.217 88.7285 303.348 88.9238C303.494 89.1029 303.632 89.1924 303.763 89.1924H306.961C307.384 89.1924 307.653 89.3307 307.767 89.6074C307.897 89.8841 307.962 90.3805 307.962 91.0967C307.962 92.0244 307.522 92.4883 306.644 92.4883L295.657 92.293C295.12 92.293 294.852 92.0326 294.852 91.5117V87.8008C294.852 83.5527 294.607 80.859 294.119 79.7197C293.631 78.5804 293.11 77.6364 292.557 76.8877C292.003 76.139 291.336 75.5612 290.555 75.1543C288.699 74.1777 286.364 73.6895 283.548 73.6895H278.763C278.486 73.6895 278.348 73.8278 278.348 74.1045V79.1094C278.348 85.0501 278.551 88.4111 278.958 89.1924H284.939C285.607 89.1924 285.94 89.7458 285.94 90.8525C285.94 91.943 285.607 92.4883 284.939 92.4883L274.344 92.293ZM278.348 71.3945C278.673 71.4596 278.909 71.4922 279.056 71.4922H285.843C289.358 71.4922 291.613 69.7181 292.605 66.1699C292.898 65.1771 293.045 64.0703 293.045 62.8496C293.045 61.6126 292.752 60.4326 292.166 59.3096C291.58 58.1702 290.783 57.2262 289.773 56.4775C287.674 54.8988 285.135 54.1094 282.156 54.1094C280.952 54.1094 279.747 54.1745 278.543 54.3047C278.413 54.9557 278.348 57.0553 278.348 60.6035V71.3945ZM323.709 92.293L312.601 92.4883C311.868 92.4883 311.502 91.943 311.502 90.8525C311.502 89.7458 311.901 89.1924 312.698 89.1924H319.217C319.282 88.9971 319.314 87.8984 319.314 85.8965V60.6035C319.314 57.1855 319.144 55.2161 318.802 54.6953H313.211C312.332 54.6953 311.893 54.1501 311.893 53.0596C311.893 51.9528 312.161 51.3994 312.698 51.3994C312.698 51.3994 316.23 51.4645 323.294 51.5947L345.706 51.3994C345.836 51.139 345.901 50.4717 345.901 49.3975C345.901 48.7952 346.438 48.4941 347.513 48.4941H347.806C348.799 48.4941 349.295 48.8278 349.295 49.4951L349.197 60.6035C349.197 61.2057 348.628 61.5068 347.488 61.5068C346.365 61.5068 345.804 61.2057 345.804 60.6035V55.1104C344.583 54.8337 340.351 54.6953 333.108 54.6953L327.396 54.6953C327.265 55.1673 327.2 56.8031 327.2 59.6025V69.3926C327.2 70.1901 327.371 70.5889 327.713 70.5889H331.106C338.479 70.5889 342.581 70.4261 343.411 70.1006V65.9014C343.411 65.3643 343.94 65.0957 344.998 65.0957C346.072 65.0957 346.609 65.3317 346.609 65.8037L346.512 71.5898L346.609 77.5957C346.609 78.0677 346.072 78.3037 344.998 78.3037C343.94 78.3037 343.411 77.9701 343.411 77.3027V73.8115C342.695 73.4697 339.993 73.2988 335.306 73.2988H328.006C327.648 73.2988 327.42 73.3395 327.322 73.4209C327.241 73.5023 327.208 73.9743 327.225 74.8369C327.241 75.6833 327.257 76.9609 327.273 78.6699C327.306 80.3626 327.33 81.6891 327.347 82.6494C327.363 83.5934 327.387 84.5374 327.42 85.4814C327.485 87.2881 327.583 88.2972 327.713 88.5088L348.611 88.2891C349.002 88.2891 349.23 88.2321 349.295 88.1182C349.36 88.0042 349.393 87.6624 349.393 87.0928V81.4043C349.393 80.8021 349.897 80.501 350.906 80.501H351.297C352.371 80.501 352.908 80.8021 352.908 81.4043L352.811 91.5117C352.811 92.1628 352.306 92.4883 351.297 92.4883L323.709 92.293ZM366.897 92.293L358.401 92.4883C357.669 92.4883 357.303 91.943 357.303 90.8525C357.303 89.7458 357.701 89.1924 358.499 89.1924H364.212C364.554 87.6299 365.05 76.1309 365.701 54.6953H359.012C358.393 54.6953 357.97 54.557 357.742 54.2803C357.514 53.9873 357.4 53.5234 357.4 52.8887C357.4 51.8958 357.938 51.3994 359.012 51.3994L368.509 51.5947H373.611C374.035 51.5947 374.433 51.8307 374.808 52.3027L398.807 79.4023C399.148 79.8418 399.352 79.9883 399.417 79.8418C399.482 79.679 399.515 78.5885 399.515 76.5703C399.515 74.5521 399.433 70.6214 399.271 64.7783C399.108 58.9189 398.921 55.5579 398.709 54.6953H391.507C390.84 54.6953 390.506 54.1501 390.506 53.0596C390.506 51.9528 390.84 51.3994 391.507 51.3994L401.395 51.5947L408.914 51.3994C409.516 51.3994 409.817 51.8633 409.817 52.791V53.2061C409.817 54.1989 409.41 54.6953 408.597 54.6953H404.007C403.665 55.7207 403.38 60.1071 403.152 67.8545C402.924 75.5856 402.811 81.1683 402.811 84.6025L403.006 92.293C403.006 93.1719 402.688 93.6113 402.054 93.6113C401.419 93.6113 400.768 93.2777 400.101 92.6104L369.607 58.8945L368.606 57.8936V65.7061C368.606 80.1104 368.842 87.9391 369.314 89.1924H376.81C377.477 89.1924 377.811 89.7458 377.811 90.8525C377.811 91.943 377.477 92.4883 376.81 92.4883L366.897 92.293ZM435.647 92.293L424.344 92.4883C423.611 92.4883 423.245 91.943 423.245 90.8525C423.245 89.7458 423.644 89.1924 424.441 89.1924H430.838C431.001 88.6227 431.098 87.2637 431.131 85.1152C431.18 82.9668 431.212 81.6322 431.229 81.1113L431.546 60.0908C431.546 57.0146 431.44 55.2161 431.229 54.6953H426.834C420.91 54.6953 417.809 54.9313 417.532 55.4033L416.849 61.4092C416.784 61.8649 416.246 62.0928 415.237 62.0928C414.244 62.0928 413.748 61.8324 413.748 61.3115C413.748 61.0674 413.96 59.1387 414.383 55.5254C414.806 51.9121 415.05 50.0485 415.115 49.9346C415.278 49.6416 415.791 49.4951 416.653 49.4951C417.516 49.4951 417.947 49.7637 417.947 50.3008V51.4971C418.208 51.5622 418.908 51.5947 420.047 51.5947L447.537 51.5947C451.15 51.5947 453.152 51.4971 453.543 51.3018C453.576 51.1227 453.608 50.8053 453.641 50.3496C453.673 49.8776 453.706 49.5277 453.738 49.2998C453.738 48.8929 454.17 48.6895 455.032 48.6895H455.228C456.172 48.6895 456.644 49.0231 456.644 49.6904L456.741 60.4082C456.741 61.0755 456.22 61.4092 455.179 61.4092C454.153 61.4092 453.641 61.0023 453.641 60.1885V54.8906C453.169 54.7604 451.102 54.6953 447.439 54.6953H440.237C439.765 55.5417 439.529 58.8132 439.529 64.5098V82.8936C439.529 87.0928 439.765 89.1924 440.237 89.1924H447.146C447.814 89.1924 448.147 89.7458 448.147 90.8525C448.147 91.943 447.814 92.4883 447.146 92.4883L435.647 92.293Z" fill="#153243"/>
<path d="M91.0186 138.394C90.6523 138.394 90.4367 138.341 90.3716 138.235C90.3065 138.121 90.2739 137.816 90.2739 137.32C90.2739 136.823 90.3024 136.522 90.3594 136.417C90.4163 136.303 90.5872 136.246 90.8721 136.246L126.321 136.246C126.671 136.246 126.883 136.29 126.956 136.38C127.029 136.469 127.066 136.677 127.066 137.002V137.601C127.066 137.942 127.025 138.162 126.944 138.26C126.862 138.349 126.655 138.394 126.321 138.394L91.0186 138.394ZM128.519 138.394C128.152 138.394 127.937 138.341 127.872 138.235C127.806 138.121 127.774 137.816 127.774 137.32C127.774 136.823 127.802 136.522 127.859 136.417C127.916 136.303 128.087 136.246 128.372 136.246H163.821C164.171 136.246 164.383 136.29 164.456 136.38C164.529 136.469 164.566 136.677 164.566 137.002V137.601C164.566 137.942 164.525 138.162 164.444 138.26C164.362 138.349 164.155 138.394 163.821 138.394H128.519ZM166.019 138.394C165.652 138.394 165.437 138.341 165.372 138.235C165.306 138.121 165.274 137.816 165.274 137.32C165.274 136.823 165.302 136.522 165.359 136.417C165.416 136.303 165.587 136.246 165.872 136.246H201.321C201.671 136.246 201.883 136.29 201.956 136.38C202.029 136.469 202.066 136.677 202.066 137.002V137.601C202.066 137.942 202.025 138.162 201.944 138.26C201.862 138.349 201.655 138.394 201.321 138.394H166.019ZM233.792 147.146L228.885 147.244C228.519 147.244 228.335 146.972 228.335 146.426C228.335 145.873 228.535 145.596 228.934 145.596H231.741C231.839 145.197 231.888 143.851 231.888 141.556V139.651C231.814 139.342 230.748 137.474 228.689 134.048C226.639 130.614 225.455 128.714 225.137 128.348H223.587C223.261 128.348 223.046 128.287 222.94 128.165C222.842 128.034 222.793 127.868 222.793 127.664C222.793 127.452 222.798 127.306 222.806 127.225C222.822 127.143 222.854 127.058 222.903 126.968C223.001 126.789 223.229 126.7 223.587 126.7L227.737 126.797L232.645 126.7C232.97 126.7 233.182 126.769 233.279 126.907C233.385 127.037 233.438 127.253 233.438 127.554C233.438 128.083 233.19 128.348 232.693 128.348H230.337C230.525 129.064 231.204 130.537 232.376 132.767C233.556 134.996 234.223 136.233 234.378 136.478C234.533 136.714 234.626 136.86 234.659 136.917C234.691 136.966 234.712 136.994 234.72 137.002C234.728 137.011 234.744 137.031 234.769 137.063C234.793 137.088 234.809 137.096 234.817 137.088C234.834 137.08 234.858 137.072 234.891 137.063C234.923 137.055 235.053 136.925 235.281 136.673C235.509 136.421 236.193 135.346 237.332 133.45C238.471 131.554 239.204 130.28 239.529 129.629C239.863 128.978 240.099 128.584 240.237 128.445C240.042 128.38 239.778 128.348 239.444 128.348H237.442C237.116 128.348 236.901 128.287 236.795 128.165C236.689 128.034 236.636 127.827 236.636 127.542C236.636 126.98 236.921 126.7 237.491 126.7L241.836 126.797L244.534 126.7C245.039 126.7 245.291 126.976 245.291 127.53C245.291 128.075 245.039 128.348 244.534 128.348C244.192 128.348 243.924 128.348 243.729 128.348C243.541 128.348 243.415 128.356 243.35 128.372C243.285 128.38 243.244 128.388 243.228 128.396C243.212 128.396 243.175 128.417 243.118 128.458C243.069 128.49 243.037 128.519 243.021 128.543C243.004 128.567 242.964 128.62 242.898 128.702C242.841 128.775 242.797 128.836 242.764 128.885C242.732 128.934 242.667 129.023 242.569 129.153C242.479 129.284 242.402 129.397 242.337 129.495L236.185 137.906C235.957 138.207 235.826 138.41 235.794 138.516C235.761 138.622 235.745 138.899 235.745 139.346V143.704C235.745 144.965 235.843 145.596 236.038 145.596H239.285C239.619 145.596 239.786 145.873 239.786 146.426C239.786 146.972 239.619 147.244 239.285 147.244L233.792 147.146ZM246.5 137.43C246.5 136.29 246.646 135.175 246.939 134.085C247.24 132.994 247.712 131.965 248.355 130.997C248.998 130.028 249.779 129.186 250.699 128.47C252.684 126.924 255.268 126.15 258.45 126.15C262.12 126.15 264.969 127.713 266.995 130.838C268.191 132.677 268.79 134.716 268.79 136.954C268.79 140.705 267.561 143.541 265.103 145.462C263.199 146.951 260.562 147.696 257.193 147.696C253.189 147.696 250.21 146.284 248.257 143.46C247.085 141.759 246.5 139.749 246.5 137.43ZM254.239 128.787C253.222 129.601 252.416 130.695 251.822 132.071C251.236 133.446 250.943 135.005 250.943 136.746C250.943 138.488 251.199 140.095 251.712 141.568C252.233 143.033 252.977 144.18 253.946 145.01C254.922 145.84 255.98 146.255 257.12 146.255C258.267 146.255 259.244 146.076 260.049 145.718C260.863 145.352 261.535 144.876 262.063 144.29C262.592 143.696 263.036 143.004 263.394 142.215C264.061 140.734 264.395 139.22 264.395 137.674C264.395 136.119 264.224 134.76 263.882 133.597C263.549 132.433 263.089 131.408 262.503 130.521C261.917 129.625 261.189 128.909 260.318 128.372C259.455 127.827 258.479 127.554 257.388 127.554C256.306 127.554 255.256 127.965 254.239 128.787ZM291.946 126.797L295.999 126.7C296.398 126.7 296.597 126.976 296.597 127.53C296.597 128.075 296.345 128.348 295.84 128.348H294.144C294.046 128.657 293.997 129.841 293.997 131.9V146.5C293.997 146.752 293.908 146.955 293.729 147.11C293.549 147.273 293.269 147.354 292.886 147.354C292.512 147.354 292.182 147.171 291.897 146.805C291.71 146.536 291.45 146.141 291.116 145.621C290.791 145.1 290.608 144.827 290.567 144.803C290.534 144.778 290.416 144.823 290.213 144.937C290.018 145.051 289.83 145.157 289.651 145.254C289.48 145.344 289.236 145.47 288.919 145.633C288.61 145.796 288.3 145.942 287.991 146.072C287.69 146.202 287.344 146.345 286.954 146.5C286.563 146.654 286.164 146.792 285.757 146.915C285.35 147.028 284.931 147.138 284.5 147.244C282.482 147.708 280.508 147.692 278.58 147.195C276.211 146.593 274.812 145.222 274.38 143.082C274.258 142.479 274.197 141.804 274.197 141.055V135.452C274.197 131.367 274.144 128.999 274.039 128.348H272.049C271.74 128.348 271.528 128.278 271.414 128.14C271.3 127.994 271.243 127.762 271.243 127.444C271.243 126.948 271.512 126.7 272.049 126.7L276.15 126.797L281.546 126.7C281.945 126.7 282.144 126.976 282.144 127.53C282.144 128.075 281.896 128.348 281.399 128.348H278.348C278.242 128.681 278.189 129.865 278.189 131.9V140.347C278.189 142.854 279.259 144.481 281.399 145.23C282.002 145.442 282.669 145.547 283.401 145.547C284.142 145.547 284.83 145.499 285.464 145.401C286.099 145.303 286.693 145.136 287.247 144.9C287.808 144.656 288.284 144.347 288.675 143.973C289.489 143.183 289.928 142.044 289.993 140.555C290.026 140.091 290.042 138.077 290.042 134.512C290.042 130.948 289.961 128.893 289.798 128.348H287.1C286.791 128.348 286.579 128.278 286.465 128.14C286.351 127.994 286.294 127.762 286.294 127.444C286.294 126.948 286.563 126.7 287.1 126.7L291.946 126.797ZM304.08 147.146L299.332 147.244C298.933 147.244 298.733 146.972 298.733 146.426C298.733 145.873 298.933 145.596 299.332 145.596H301.932C302.07 145.368 302.139 144.518 302.139 143.045V135.147C302.139 131.086 302.037 128.82 301.834 128.348H299.234C298.77 128.348 298.538 128.083 298.538 127.554C298.538 127.017 298.754 126.749 299.185 126.749L303.934 126.797L309.488 126.7C313.687 126.7 316.23 127.802 317.117 130.008C317.329 130.529 317.435 131.111 317.435 131.753C317.435 134.097 315.872 135.826 312.747 136.941C312.682 136.958 312.576 136.994 312.43 137.051C316.352 138.06 318.354 140.376 318.436 143.997C318.468 144.876 318.517 145.364 318.582 145.462C318.655 145.551 318.724 145.596 318.79 145.596H320.389C320.6 145.596 320.735 145.665 320.792 145.804C320.857 145.942 320.889 146.19 320.889 146.548C320.889 147.012 320.669 147.244 320.23 147.244L314.737 147.146C314.468 147.146 314.334 147.016 314.334 146.756V144.9C314.334 142.776 314.212 141.43 313.968 140.86C313.724 140.29 313.463 139.818 313.187 139.444C312.91 139.069 312.576 138.781 312.186 138.577C311.258 138.089 310.09 137.845 308.682 137.845H306.29C306.151 137.845 306.082 137.914 306.082 138.052V140.555C306.082 143.525 306.184 145.206 306.387 145.596H309.378C309.712 145.596 309.878 145.873 309.878 146.426C309.878 146.972 309.712 147.244 309.378 147.244L304.08 147.146ZM306.082 136.697C306.245 136.73 306.363 136.746 306.436 136.746H309.83C311.587 136.746 312.715 135.859 313.211 134.085C313.357 133.589 313.431 133.035 313.431 132.425C313.431 131.806 313.284 131.216 312.991 130.655C312.698 130.085 312.299 129.613 311.795 129.239C310.745 128.449 309.476 128.055 307.986 128.055C307.384 128.055 306.782 128.087 306.18 128.152C306.115 128.478 306.082 129.528 306.082 131.302V136.697ZM342.679 138.394C342.312 138.394 342.097 138.341 342.032 138.235C341.967 138.121 341.934 137.816 341.934 137.32C341.934 136.823 341.963 136.522 342.02 136.417C342.076 136.303 342.247 136.246 342.532 136.246H377.981C378.331 136.246 378.543 136.29 378.616 136.38C378.689 136.469 378.726 136.677 378.726 137.002V137.601C378.726 137.942 378.685 138.162 378.604 138.26C378.523 138.349 378.315 138.394 377.981 138.394H342.679ZM380.179 138.394C379.812 138.394 379.597 138.341 379.532 138.235C379.467 138.121 379.434 137.816 379.434 137.32C379.434 136.823 379.463 136.522 379.52 136.417C379.576 136.303 379.747 136.246 380.032 136.246H415.481C415.831 136.246 416.043 136.29 416.116 136.38C416.189 136.469 416.226 136.677 416.226 137.002V137.601C416.226 137.942 416.185 138.162 416.104 138.26C416.023 138.349 415.815 138.394 415.481 138.394H380.179ZM417.679 138.394C417.312 138.394 417.097 138.341 417.032 138.235C416.967 138.121 416.934 137.816 416.934 137.32C416.934 136.823 416.963 136.522 417.02 136.417C417.076 136.303 417.247 136.246 417.532 136.246H452.981C453.331 136.246 453.543 136.29 453.616 136.38C453.689 136.469 453.726 136.677 453.726 137.002V137.601C453.726 137.942 453.685 138.162 453.604 138.26C453.523 138.349 453.315 138.394 452.981 138.394H417.679Z" fill="#153243"/>
<path d="M42.8008 180.294L43.1182 173.897C43.1182 172.888 42.3206 171.7 40.7256 170.333C39.1468 168.966 37.7389 167.892 36.502 167.11C33.6374 165.304 30.5693 164.4 27.2979 164.4C24.0426 164.4 21.1781 165.597 18.7041 167.989C16.2464 170.382 15.0176 173.409 15.0176 177.071C15.0176 180.717 16.5801 183.712 19.7051 186.056C21.7233 187.569 25.1657 189.229 30.0322 191.036C34.915 192.843 38.3249 194.251 40.2617 195.26C44.3958 197.457 47.2523 200.151 48.8311 203.341C49.9541 205.619 50.5156 208.11 50.5156 210.812C50.5156 213.513 50.0843 215.93 49.2217 218.062C48.3753 220.195 47.2197 222.034 45.7549 223.58C44.29 225.11 42.5892 226.428 40.6523 227.535C36.7949 229.716 32.5143 230.807 27.8105 230.807C21.9186 230.807 16.5475 229.96 11.6973 228.268C9.07682 227.356 7.74219 226.55 7.69336 225.851C7.66081 225.134 7.54688 223.548 7.35156 221.09C6.92839 215.426 6.7168 212.309 6.7168 211.739C6.7168 211.17 6.72493 210.82 6.74121 210.689C6.75749 210.559 6.81445 210.413 6.91211 210.25C7.05859 209.957 7.48991 209.811 8.20605 209.811H8.69434C9.37793 209.811 9.85807 209.933 10.1348 210.177C10.4115 210.405 10.5661 210.836 10.5986 211.471L11.209 220.87C11.2741 221.7 12.3483 222.595 14.4316 223.556C16.5313 224.516 18.9482 225.313 21.6826 225.948C24.4333 226.583 26.8665 226.9 28.9824 226.9C31.0983 226.9 33.1491 226.396 35.1348 225.387C37.1204 224.361 38.7074 222.937 39.8955 221.114C41.0999 219.291 41.7021 217.444 41.7021 215.572C41.7021 213.701 41.3929 212.114 40.7744 210.812C40.1722 209.509 39.4316 208.411 38.5527 207.516C37.6738 206.62 36.4694 205.742 34.9395 204.879C32.8236 203.658 30.431 202.527 27.7617 201.485C25.1087 200.427 23.416 199.752 22.6836 199.459C21.9512 199.15 20.9176 198.694 19.583 198.092C18.2646 197.49 17.2393 196.969 16.5068 196.529C15.7744 196.09 14.8548 195.512 13.748 194.796C12.6576 194.063 11.8031 193.372 11.1846 192.721C10.5661 192.053 9.88249 191.256 9.13379 190.328C8.40137 189.384 7.84798 188.424 7.47363 187.447C6.56217 185.071 6.10645 182.809 6.10645 180.66C6.10645 178.495 6.39128 176.55 6.96094 174.825C7.5306 173.1 8.31185 171.546 9.30469 170.162C10.2975 168.762 11.4775 167.485 12.8447 166.329C14.2282 165.174 15.7174 164.205 17.3125 163.424C20.6816 161.812 23.8392 161.007 26.7852 161.007C29.7474 161.007 32.3027 161.284 34.4512 161.837C36.5996 162.39 38.4632 163.229 40.042 164.352C41.637 165.458 42.6217 166.012 42.9961 166.012C43.1751 166.012 43.2972 165.515 43.3623 164.522C43.4437 163.53 43.5739 162.944 43.7529 162.765C43.9482 162.586 44.4854 162.496 45.3643 162.496C46.2432 162.496 46.8047 162.586 47.0488 162.765C47.293 162.944 47.415 163.424 47.415 164.205L46.8047 180.099C46.8047 180.799 46.707 181.262 46.5117 181.49C46.3164 181.702 45.7956 181.808 44.9492 181.808C44.1029 181.808 43.5332 181.694 43.2402 181.466C42.9473 181.238 42.8008 180.847 42.8008 180.294ZM97.3418 188.595L105.447 188.399C106.245 188.399 106.644 188.953 106.644 190.06C106.644 191.15 106.139 191.695 105.13 191.695H101.736C101.541 192.314 101.443 194.682 101.443 198.8V227.999C101.443 228.504 101.264 228.91 100.906 229.22C100.548 229.545 99.9867 229.708 99.2217 229.708C98.473 229.708 97.8138 229.342 97.2441 228.609C96.8698 228.072 96.349 227.283 95.6816 226.241C95.0306 225.2 94.6644 224.654 94.583 224.605C94.5179 224.557 94.2819 224.646 93.875 224.874C93.4844 225.102 93.11 225.313 92.752 225.509C92.4102 225.688 91.9219 225.94 91.2871 226.266C90.6686 226.591 90.0501 226.884 89.4316 227.145C88.8294 227.405 88.1377 227.69 87.3564 227.999C86.5752 228.308 85.7777 228.585 84.9639 228.829C84.1501 229.057 83.3118 229.277 82.4492 229.488C78.4128 230.416 74.4658 230.383 70.6084 229.391C65.8721 228.186 63.0726 225.444 62.21 221.163C61.9658 219.959 61.8438 218.608 61.8438 217.11V205.904C61.8438 197.734 61.738 192.997 61.5264 191.695H57.5469C56.9284 191.695 56.5052 191.557 56.2773 191.28C56.0495 190.987 55.9355 190.523 55.9355 189.889C55.9355 188.896 56.4727 188.399 57.5469 188.399L65.75 188.595L76.541 188.399C77.3385 188.399 77.7373 188.953 77.7373 190.06C77.7373 191.15 77.2409 191.695 76.248 191.695H70.1445C69.9329 192.363 69.8271 194.731 69.8271 198.8V215.694C69.8271 220.707 71.9674 223.963 76.248 225.46C77.4525 225.883 78.7871 226.095 80.252 226.095C81.7331 226.095 83.1084 225.997 84.3779 225.802C85.6475 225.606 86.8356 225.273 87.9424 224.801C89.0654 224.312 90.0176 223.694 90.7988 222.945C92.4264 221.367 93.3053 219.088 93.4355 216.109C93.5007 215.182 93.5332 211.153 93.5332 204.024C93.5332 196.896 93.3704 192.786 93.0449 191.695H87.6494C87.0309 191.695 86.6077 191.557 86.3799 191.28C86.152 190.987 86.0381 190.523 86.0381 189.889C86.0381 188.896 86.5752 188.399 87.6494 188.399L97.3418 188.595ZM122.513 229.293L112.625 229.488C111.811 229.488 111.404 228.943 111.404 227.853C111.404 226.746 111.811 226.192 112.625 226.192H118.606C118.883 225.737 119.021 224.036 119.021 221.09V205.294C119.021 197.172 118.818 192.639 118.411 191.695H112.405C111.478 191.695 111.014 191.166 111.014 190.108C111.014 189.034 111.445 188.497 112.308 188.497L122.61 188.595L133.426 188.399C137.251 188.399 139.936 188.644 141.482 189.132C143.045 189.62 144.274 190.125 145.169 190.646C146.08 191.15 146.829 191.744 147.415 192.428C148.75 194.007 149.417 196.033 149.417 198.507C149.417 202.983 146.74 206.116 141.385 207.906C140.538 208.183 140.075 208.329 139.993 208.346C139.912 208.362 139.855 208.378 139.822 208.395C147.553 210.022 151.419 213.521 151.419 218.893C151.419 225.891 145.421 229.391 133.426 229.391L122.513 229.293ZM127.322 210.006C127.046 210.006 126.907 210.136 126.907 210.396V216.109C126.907 222.05 127.111 225.411 127.518 226.192H132.107C135.395 226.192 137.715 225.81 139.065 225.045C140.433 224.264 141.401 223.539 141.971 222.872C142.996 221.651 143.509 220.227 143.509 218.6C143.509 212.87 139.611 210.006 131.814 210.006H127.322ZM132.62 207.296L135.721 207.394C137.56 207.394 139 206.62 140.042 205.074C141.084 203.512 141.604 201.502 141.604 199.044C141.604 196.586 140.636 194.649 138.699 193.233C136.779 191.817 134.215 191.109 131.009 191.109C129.625 191.109 128.331 191.174 127.127 191.305C126.98 192.037 126.907 194.137 126.907 197.604V207.198L127.615 207.296H132.62ZM183.206 199.898L183.401 195.699C183.401 195.178 182.653 194.397 181.155 193.355C178.291 191.386 175.54 190.401 172.903 190.401C171.341 190.401 169.982 190.8 168.826 191.598C166.678 193.046 165.604 194.845 165.604 196.993C165.604 199.125 166.596 200.81 168.582 202.047C170.161 203.023 172.033 203.87 174.197 204.586C176.378 205.286 178.12 205.88 179.422 206.368C180.74 206.84 181.985 207.426 183.157 208.126C184.345 208.81 185.395 209.583 186.307 210.445C188.309 212.333 189.31 214.921 189.31 218.209C189.31 223.368 186.941 226.917 182.205 228.854C177.859 230.644 172.684 231.002 166.678 229.928C162.104 229.114 159.817 228.268 159.817 227.389C159.541 220.895 159.402 217.379 159.402 216.842C159.402 216.288 159.874 216.004 160.818 215.987C161.762 215.955 162.316 216.036 162.479 216.231C162.641 216.427 162.747 216.882 162.796 217.599L163.113 222.506C163.178 223.124 163.813 223.775 165.018 224.459C167.833 226.087 170.999 226.9 174.515 226.9C180.049 226.9 182.815 224.736 182.815 220.406C182.815 218.616 181.806 217.175 179.788 216.085C178.421 215.336 176.582 214.579 174.271 213.814C171.976 213.049 170.161 212.423 168.826 211.935C167.508 211.43 166.246 210.82 165.042 210.104C163.838 209.371 162.771 208.557 161.844 207.662C159.826 205.709 158.816 203.316 158.816 200.484C158.816 197.652 159.435 195.284 160.672 193.38C161.925 191.476 163.593 190.003 165.677 188.961C167.776 187.919 170.226 187.398 173.025 187.398C175.988 187.398 179.275 188.245 182.889 189.937C183.019 190.003 183.125 190.068 183.206 190.133C183.304 190.182 183.369 190.206 183.401 190.206C183.532 189.815 183.597 189.319 183.597 188.717C183.597 188.098 184.183 187.789 185.354 187.789C186.526 187.789 187.112 188.196 187.112 189.01L186.502 199.898C186.502 200.566 185.949 200.899 184.842 200.899C183.751 200.899 183.206 200.566 183.206 199.898ZM232.425 204.903L232.718 198.092C232.718 197.896 232.368 197.457 231.668 196.773C230.984 196.074 230.211 195.406 229.349 194.771C228.486 194.137 227.485 193.51 226.346 192.892C223.888 191.557 221.268 190.89 218.484 190.89C215.701 190.89 213.252 191.646 211.136 193.16C209.02 194.658 207.335 196.773 206.082 199.508C204.845 202.242 204.227 205.074 204.227 208.004C204.227 210.917 204.601 213.473 205.35 215.67C206.098 217.867 207.132 219.788 208.45 221.432C211.315 225.012 215.034 226.803 219.607 226.803C222.798 226.803 225.556 226.371 227.884 225.509C230.228 224.646 231.969 223.645 233.108 222.506C233.32 221.334 233.442 219.885 233.475 218.16C233.523 216.419 233.572 215.198 233.621 214.498C233.686 213.831 234.264 213.497 235.354 213.497C236.461 213.497 237.015 213.896 237.015 214.693C237.015 217.835 236.884 221.269 236.624 224.996C236.591 225.501 235.59 226.217 233.621 227.145C231.668 228.056 229.21 228.894 226.248 229.659C223.286 230.424 220.527 230.807 217.972 230.807C215.416 230.807 212.942 230.514 210.55 229.928C208.174 229.358 206.009 228.471 204.056 227.267C202.103 226.046 200.434 224.557 199.051 222.799C196.17 219.088 194.729 214.221 194.729 208.199C194.729 205.546 195.34 202.95 196.561 200.411C197.798 197.872 199.433 195.65 201.468 193.746C203.502 191.842 205.919 190.312 208.719 189.156C211.535 187.984 214.432 187.398 217.41 187.398C222.83 187.398 228.063 188.928 233.108 191.988L233.23 191.207C233.393 190.263 233.979 189.791 234.988 189.791C236.014 189.791 236.526 190.198 236.526 191.012L236.111 204.903C236.111 205.571 235.493 205.904 234.256 205.904C233.035 205.904 232.425 205.571 232.425 204.903ZM253.543 229.293L244.046 229.488C243.248 229.488 242.85 228.943 242.85 227.853C242.85 226.746 243.248 226.192 244.046 226.192H249.246C249.523 225.737 249.661 224.036 249.661 221.09V205.294C249.661 197.172 249.458 192.639 249.051 191.695H243.851C242.923 191.695 242.459 191.166 242.459 190.108C242.459 189.034 242.89 188.497 243.753 188.497L253.25 188.595L264.358 188.399C272.757 188.399 277.843 190.605 279.617 195.016C280.04 196.057 280.252 197.221 280.252 198.507C280.252 203.194 277.127 206.653 270.877 208.883C270.747 208.915 270.535 208.989 270.242 209.103C278.087 211.121 282.091 215.751 282.254 222.994C282.319 224.752 282.417 225.729 282.547 225.924C282.693 226.103 282.832 226.192 282.962 226.192H286.16C286.583 226.192 286.852 226.331 286.966 226.607C287.096 226.884 287.161 227.381 287.161 228.097C287.161 229.024 286.722 229.488 285.843 229.488L274.856 229.293C274.319 229.293 274.051 229.033 274.051 228.512V224.801C274.051 220.553 273.807 217.859 273.318 216.72C272.83 215.58 272.309 214.636 271.756 213.888C271.202 213.139 270.535 212.561 269.754 212.154C267.898 211.178 265.563 210.689 262.747 210.689H257.962C257.685 210.689 257.547 210.828 257.547 211.104V216.109C257.547 222.05 257.75 225.411 258.157 226.192H264.139C264.806 226.192 265.14 226.746 265.14 227.853C265.14 228.943 264.806 229.488 264.139 229.488L253.543 229.293ZM257.547 208.395C257.872 208.46 258.108 208.492 258.255 208.492H265.042C268.558 208.492 270.812 206.718 271.805 203.17C272.098 202.177 272.244 201.07 272.244 199.85C272.244 198.613 271.951 197.433 271.365 196.31C270.779 195.17 269.982 194.226 268.973 193.478C266.873 191.899 264.334 191.109 261.355 191.109C260.151 191.109 258.947 191.174 257.742 191.305C257.612 191.956 257.547 194.055 257.547 197.604V208.395ZM302.615 229.293L291.8 229.488C291.067 229.488 290.701 228.943 290.701 227.853C290.701 226.746 291.1 226.192 291.897 226.192H298.001C298.196 225.395 298.294 222.701 298.294 218.111V205.904C298.294 197.636 298.196 192.9 298.001 191.695H292.508C291.906 191.695 291.515 191.565 291.336 191.305C291.173 191.028 291.092 190.556 291.092 189.889C291.092 188.896 291.629 188.399 292.703 188.399L302.2 188.595L313.113 188.399C313.846 188.399 314.212 188.953 314.212 190.06C314.212 191.15 313.74 191.695 312.796 191.695H306.912C306.701 192.363 306.595 194.731 306.595 198.8V218.209C306.595 222.164 306.766 224.825 307.107 226.192H313.602C314.269 226.192 314.603 226.746 314.603 227.853C314.603 228.943 314.269 229.488 313.602 229.488L302.615 229.293ZM331.229 229.293L320.828 229.488C320.031 229.488 319.632 228.943 319.632 227.853C319.632 226.746 320.031 226.192 320.828 226.192H326.834C327.094 225.753 327.225 224.052 327.225 221.09V205.294C327.225 197.172 327.021 192.639 326.614 191.695H320.413C319.485 191.695 319.021 191.166 319.021 190.108C319.021 189.034 319.453 188.497 320.315 188.497L330.813 188.595L341.629 188.399C350.141 188.399 355.496 190.67 357.693 195.211C358.377 196.594 358.719 198.198 358.719 200.021C358.719 201.843 358.393 203.471 357.742 204.903C357.091 206.319 356.22 207.475 355.13 208.37C354.056 209.265 352.745 209.998 351.199 210.567C348.432 211.593 345.104 212.105 341.214 212.105L335.428 211.91C335.151 211.91 335.013 212.04 335.013 212.301V216.109C335.013 222.001 335.249 225.362 335.721 226.192H343.021C343.688 226.192 344.021 226.746 344.021 227.853C344.021 228.943 343.688 229.488 343.021 229.488L331.229 229.293ZM335.013 209.005C335.013 209.396 335.249 209.591 335.721 209.591C343.794 209.591 348.628 207.882 350.223 204.464C350.695 203.471 350.931 202.315 350.931 200.997C350.931 197.937 349.897 195.593 347.83 193.966C345.763 192.322 342.898 191.5 339.236 191.5C337.511 191.5 336.176 191.565 335.232 191.695C335.086 192.281 335.013 194.251 335.013 197.604V209.005ZM385.062 229.293L373.758 229.488C373.025 229.488 372.659 228.943 372.659 227.853C372.659 226.746 373.058 226.192 373.855 226.192H380.252C380.415 225.623 380.512 224.264 380.545 222.115C380.594 219.967 380.626 218.632 380.643 218.111L380.96 197.091C380.96 194.015 380.854 192.216 380.643 191.695H376.248C370.324 191.695 367.223 191.931 366.946 192.403L366.263 198.409C366.198 198.865 365.66 199.093 364.651 199.093C363.659 199.093 363.162 198.832 363.162 198.312C363.162 198.067 363.374 196.139 363.797 192.525C364.22 188.912 364.464 187.049 364.529 186.935C364.692 186.642 365.205 186.495 366.067 186.495C366.93 186.495 367.361 186.764 367.361 187.301V188.497C367.622 188.562 368.322 188.595 369.461 188.595H396.951C400.564 188.595 402.566 188.497 402.957 188.302C402.99 188.123 403.022 187.805 403.055 187.35C403.087 186.878 403.12 186.528 403.152 186.3C403.152 185.893 403.584 185.689 404.446 185.689H404.642C405.586 185.689 406.058 186.023 406.058 186.69L406.155 197.408C406.155 198.076 405.634 198.409 404.593 198.409C403.567 198.409 403.055 198.002 403.055 197.188V191.891C402.583 191.76 400.516 191.695 396.854 191.695H389.651C389.179 192.542 388.943 195.813 388.943 201.51V219.894C388.943 224.093 389.179 226.192 389.651 226.192H396.561C397.228 226.192 397.562 226.746 397.562 227.853C397.562 228.943 397.228 229.488 396.561 229.488L385.062 229.293ZM421.951 229.293L411.136 229.488C410.403 229.488 410.037 228.943 410.037 227.853C410.037 226.746 410.436 226.192 411.233 226.192H417.337C417.532 225.395 417.63 222.701 417.63 218.111V205.904C417.63 197.636 417.532 192.9 417.337 191.695H411.844C411.242 191.695 410.851 191.565 410.672 191.305C410.509 191.028 410.428 190.556 410.428 189.889C410.428 188.896 410.965 188.399 412.039 188.399L421.536 188.595L432.449 188.399C433.182 188.399 433.548 188.953 433.548 190.06C433.548 191.15 433.076 191.695 432.132 191.695H426.248C426.036 192.363 425.931 194.731 425.931 198.8V218.209C425.931 222.164 426.102 224.825 426.443 226.192H432.938C433.605 226.192 433.938 226.746 433.938 227.853C433.938 228.943 433.605 229.488 432.938 229.488L421.951 229.293ZM438.87 209.859C438.87 207.581 439.163 205.351 439.749 203.17C440.351 200.989 441.295 198.93 442.581 196.993C443.867 195.056 445.429 193.372 447.269 191.939C451.24 188.847 456.408 187.301 462.771 187.301C470.112 187.301 475.809 190.426 479.861 196.676C482.254 200.354 483.45 204.431 483.45 208.907C483.45 216.41 480.993 222.083 476.077 225.924C472.269 228.902 466.995 230.392 460.257 230.392C452.249 230.392 446.292 227.568 442.386 221.92C440.042 218.518 438.87 214.498 438.87 209.859ZM454.349 192.574C452.314 194.202 450.703 196.391 449.515 199.142C448.343 201.892 447.757 205.009 447.757 208.492C447.757 211.975 448.27 215.19 449.295 218.136C450.337 221.065 451.826 223.36 453.763 225.021C455.716 226.681 457.832 227.511 460.11 227.511C462.405 227.511 464.358 227.153 465.97 226.437C467.597 225.704 468.94 224.752 469.998 223.58C471.056 222.392 471.943 221.008 472.659 219.43C473.994 216.467 474.661 213.44 474.661 210.348C474.661 207.239 474.319 204.521 473.636 202.193C472.968 199.866 472.049 197.815 470.877 196.041C469.705 194.251 468.248 192.818 466.507 191.744C464.782 190.654 462.828 190.108 460.647 190.108C458.483 190.108 456.383 190.93 454.349 192.574ZM497.952 229.293L489.456 229.488C488.724 229.488 488.357 228.943 488.357 227.853C488.357 226.746 488.756 226.192 489.554 226.192H495.267C495.608 224.63 496.105 213.131 496.756 191.695H490.066C489.448 191.695 489.025 191.557 488.797 191.28C488.569 190.987 488.455 190.523 488.455 189.889C488.455 188.896 488.992 188.399 490.066 188.399L499.563 188.595H504.666C505.089 188.595 505.488 188.831 505.862 189.303L529.861 216.402C530.203 216.842 530.407 216.988 530.472 216.842C530.537 216.679 530.569 215.589 530.569 213.57C530.569 211.552 530.488 207.621 530.325 201.778C530.162 195.919 529.975 192.558 529.764 191.695H522.562C521.894 191.695 521.561 191.15 521.561 190.06C521.561 188.953 521.894 188.399 522.562 188.399L532.449 188.595L539.969 188.399C540.571 188.399 540.872 188.863 540.872 189.791V190.206C540.872 191.199 540.465 191.695 539.651 191.695H535.062C534.72 192.721 534.435 197.107 534.207 204.854C533.979 212.586 533.865 218.168 533.865 221.603L534.061 229.293C534.061 230.172 533.743 230.611 533.108 230.611C532.474 230.611 531.823 230.278 531.155 229.61L500.662 195.895L499.661 194.894V202.706C499.661 217.11 499.897 224.939 500.369 226.192H507.864C508.532 226.192 508.865 226.746 508.865 227.853C508.865 228.943 508.532 229.488 507.864 229.488L497.952 229.293Z" fill="#153243"/>
</svg>
