<svg width="622" height="183" viewBox="0 0 622 183" fill="none" xmlns="http://www.w3.org/2000/svg">
<rect x="38.5" y="0.5" width="94" height="94" rx="45" fill="#F9FAF9"/>
<rect x="38.5" y="0.5" width="94" height="94" rx="45" stroke="#ADADAD"/>
<path fill-rule="evenodd" clip-rule="evenodd" d="M78.012 29.2998C77.8575 28.7234 77.4803 28.232 76.9634 27.9336C76.4465 27.6353 75.8322 27.5545 75.2558 27.7091C74.6793 27.8637 74.1879 28.2409 73.8896 28.7578C73.5913 29.2747 73.5105 29.8889 73.665 30.4653L74.2478 32.6388C74.4024 33.2153 74.7796 33.7067 75.2965 34.0051C75.8134 34.3034 76.4276 34.3842 77.004 34.2296C77.5805 34.075 78.0719 33.6978 78.3703 33.1809C78.6686 32.664 78.7494 32.0498 78.5948 31.4733L78.012 29.2998ZM68.4653 35.6651C68.1794 35.5872 67.8809 35.5665 67.5869 35.6042C67.293 35.642 67.0094 35.7374 66.7524 35.8851C66.4955 36.0327 66.2702 36.2297 66.0896 36.4647C65.909 36.6996 65.7766 36.968 65.7 37.2543C65.6234 37.5405 65.6041 37.8391 65.6432 38.1329C65.6823 38.4267 65.7791 38.7098 65.928 38.9661C66.0768 39.2223 66.2749 39.4466 66.5107 39.6262C66.7465 39.8057 67.0154 39.9368 67.302 40.0121L69.4755 40.5948C70.051 40.746 70.6628 40.663 71.1772 40.3642C71.6916 40.0654 72.0668 39.575 72.2206 39.0003C72.3743 38.4256 72.2943 37.8134 71.9978 37.2975C71.7014 36.7817 71.2128 36.4043 70.6388 36.2478L68.4653 35.6651ZM88.2968 34.3848C88.5057 34.1758 88.6714 33.9277 88.7844 33.6546C88.8974 33.3815 88.9555 33.0888 88.9554 32.7933C88.9553 32.4978 88.897 32.2051 88.7838 31.9321C88.6706 31.6592 88.5047 31.4111 88.2957 31.2022C88.0866 30.9933 87.8385 30.8276 87.5654 30.7146C87.2923 30.6016 86.9997 30.5435 86.7041 30.5436C86.4086 30.5437 86.116 30.6021 85.843 30.7153C85.57 30.8284 85.3219 30.9943 85.113 31.2033L83.5223 32.7941C83.3132 33.0031 83.1474 33.2513 83.0343 33.5245C82.9212 33.7976 82.8629 34.0903 82.8629 34.386C82.8629 34.6816 82.9212 34.9744 83.0343 35.2475C83.1474 35.5206 83.3132 35.7688 83.5223 35.9778C83.7313 36.1869 83.9795 36.3527 84.2527 36.4659C84.5258 36.579 84.8185 36.6372 85.1142 36.6372C85.4098 36.6372 85.7026 36.579 85.9757 36.4659C86.2488 36.3527 86.497 36.1869 86.706 35.9778L88.2968 34.3848ZM72.387 50.2968L73.9778 48.7061C74.4003 48.2842 74.6379 47.7118 74.6383 47.1147C74.6387 46.5176 74.4019 45.9448 73.98 45.5223C73.5582 45.0999 72.9857 44.8623 72.3886 44.8618C71.7916 44.8614 71.2188 45.0982 70.7963 45.5201L69.2033 47.1108C68.7811 47.533 68.5439 48.1057 68.5439 48.7027C68.5439 49.2998 68.7811 49.8724 69.2033 50.2946C69.6255 50.7168 70.1981 50.954 70.7952 50.954C71.3922 50.954 71.9649 50.7168 72.387 50.2946M79.587 38.6598C79.1782 38.4962 78.7302 38.4561 78.2988 38.5446C77.8673 38.6331 77.4714 38.8463 77.1599 39.1577C76.8485 39.4692 76.6353 39.8651 76.5468 40.2966C76.4583 40.728 76.4984 41.176 76.662 41.5848L85.662 64.0849C85.8233 64.4875 86.0975 64.835 86.4517 65.0855C86.8059 65.336 87.2249 65.4787 87.6583 65.4965C88.0917 65.5144 88.5211 65.4065 88.8946 65.186C89.2682 64.9655 89.57 64.6417 89.7638 64.2536L92.8688 58.0458L99.6593 64.8409C99.8683 65.0498 100.116 65.2154 100.39 65.3284C100.663 65.4414 100.955 65.4995 101.251 65.4994C101.546 65.4993 101.839 65.441 102.112 65.3278C102.385 65.2146 102.633 65.0488 102.842 64.8397C103.051 64.6307 103.217 64.3825 103.33 64.1095C103.443 63.8364 103.501 63.5437 103.501 63.2482C103.5 62.9526 103.442 62.66 103.329 62.387C103.216 62.114 103.05 61.866 102.841 61.6571L96.048 54.8621L102.258 51.7593C102.645 51.5651 102.968 51.2631 103.188 50.8897C103.408 50.5163 103.515 50.0873 103.497 49.6543C103.479 49.2214 103.337 48.8028 103.086 48.449C102.836 48.0952 102.489 47.8212 102.087 47.6598L79.587 38.6598Z" fill="#7A7A7A"/>
<path d="M18.5488 124.786L18.8564 124.813C19.1344 124.836 19.2734 124.939 19.2734 125.121C19.2734 125.395 19.1253 126.682 18.8291 128.983C18.8063 129.143 18.5807 129.364 18.1523 129.646C17.7285 129.924 17.1953 130.205 16.5527 130.487C14.9577 131.185 13.3171 131.533 11.6309 131.533C9.88086 131.533 8.25846 131.182 6.76367 130.48C5.26888 129.774 4.0612 128.687 3.14062 127.22C2.19271 125.711 1.71875 123.845 1.71875 121.621C1.71875 118.135 3.07682 115.464 5.79297 113.609C7.48372 112.452 9.48665 111.873 11.8018 111.873C13.8161 111.873 15.6755 112.488 17.3799 113.719C17.5531 113.846 17.6624 113.928 17.708 113.965C17.7581 114.001 17.806 114.031 17.8516 114.054C17.9017 114.072 17.9359 114.07 17.9541 114.047C17.9769 114.02 17.9883 113.967 17.9883 113.89V113.138C17.9883 112.96 18.0179 112.841 18.0771 112.782C18.141 112.718 18.2822 112.687 18.501 112.687C18.7243 112.687 18.8861 112.716 18.9863 112.775C19.0866 112.835 19.1367 112.955 19.1367 113.138L19.0205 118.682C19.0205 118.855 18.984 118.964 18.9111 119.01C18.8428 119.051 18.6901 119.071 18.4531 119.071C18.2207 119.071 18.0658 119.049 17.9883 119.003C17.9108 118.953 17.8721 118.855 17.8721 118.709L17.9883 116.132C17.9883 115.922 17.6898 115.578 17.0928 115.1C16.5003 114.621 15.9557 114.234 15.459 113.938C14.2695 113.236 12.9844 112.885 11.6035 112.885C9.21094 112.885 7.34473 114.056 6.00488 116.398C5.16178 117.875 4.74023 119.634 4.74023 121.676C4.74023 122.833 4.94076 123.941 5.3418 124.998C5.7474 126.055 6.29199 126.971 6.97559 127.746C7.65918 128.516 8.47493 129.132 9.42285 129.592C10.3753 130.048 11.2594 130.275 12.0752 130.275C12.891 130.275 13.5882 130.221 14.167 130.111C14.7503 130.002 15.2493 129.868 15.6641 129.708C16.0788 129.549 16.4525 129.382 16.7852 129.209C17.4414 128.858 17.7764 128.605 17.79 128.45L18.1523 125.203C18.1979 124.925 18.3301 124.786 18.5488 124.786ZM24.8311 131.082L21.9463 131.137C21.7412 131.137 21.6387 130.984 21.6387 130.679C21.6387 130.369 21.7503 130.214 21.9736 130.214H23.6006C23.6553 129.972 23.6826 128.658 23.6826 126.27V124.533C23.6826 122.218 23.6553 120.892 23.6006 120.555H22.1172C21.944 120.555 21.8255 120.516 21.7617 120.438C21.6979 120.356 21.666 120.227 21.666 120.049C21.666 119.771 21.8073 119.632 22.0898 119.632L24.7217 119.687L27.7432 119.632C27.9665 119.632 28.0781 119.787 28.0781 120.097C28.0781 120.402 27.9391 120.555 27.6611 120.555H26.0342C25.9977 120.705 25.9795 121.368 25.9795 122.544V124.615C25.9795 124.72 25.9954 124.784 26.0273 124.807C26.0638 124.829 26.1322 124.841 26.2324 124.841H31.6943C31.9176 124.841 32.0475 124.823 32.084 124.786C32.1204 124.75 32.1387 124.627 32.1387 124.417V122.77C32.1387 121.557 32.1022 120.819 32.0293 120.555H30.457C30.2155 120.555 30.0947 120.402 30.0947 120.097C30.0947 119.787 30.2155 119.632 30.457 119.632L33.0889 119.687L35.9189 119.632C36.0511 119.632 36.1172 119.787 36.1172 120.097C36.1172 120.402 36.0055 120.555 35.7822 120.555H34.4629C34.4447 120.796 34.4355 122.316 34.4355 125.114C34.4355 127.912 34.4538 129.612 34.4902 130.214H36.0283C36.1969 130.214 36.2812 130.369 36.2812 130.679C36.2812 130.984 36.1969 131.137 36.0283 131.137L33.2324 131.082L30.3203 131.137C30.1152 131.137 30.0127 130.984 30.0127 130.679C30.0127 130.369 30.1243 130.214 30.3477 130.214H32.0566C32.1113 129.986 32.1387 129.193 32.1387 127.835V125.989C32.1387 125.812 32.1182 125.707 32.0771 125.675C32.0361 125.643 31.9085 125.627 31.6943 125.627H26.2051C26.1003 125.627 26.0365 125.636 26.0137 125.654C25.9909 125.668 25.9795 126.311 25.9795 127.582C25.9795 128.854 26.0365 129.731 26.1504 130.214H27.7432C27.93 130.214 28.0234 130.369 28.0234 130.679C28.0234 130.984 27.93 131.137 27.7432 131.137L24.8311 131.082ZM37.6689 125.641C37.6689 125.003 37.751 124.378 37.915 123.768C38.0837 123.157 38.348 122.58 38.708 122.038C39.068 121.496 39.5055 121.024 40.0205 120.623C41.1325 119.757 42.5794 119.324 44.3613 119.324C46.4167 119.324 48.0117 120.199 49.1465 121.949C49.8164 122.979 50.1514 124.121 50.1514 125.374C50.1514 127.475 49.4632 129.063 48.0869 130.139C47.0205 130.973 45.5439 131.39 43.6572 131.39C41.415 131.39 39.7471 130.599 38.6533 129.018C37.9971 128.065 37.6689 126.939 37.6689 125.641ZM42.0029 120.801C41.4333 121.257 40.9821 121.869 40.6494 122.64C40.3213 123.41 40.1572 124.283 40.1572 125.258C40.1572 126.233 40.3008 127.133 40.5879 127.958C40.8796 128.778 41.2965 129.421 41.8389 129.886C42.3857 130.351 42.9782 130.583 43.6162 130.583C44.2588 130.583 44.8057 130.483 45.2568 130.282C45.7126 130.077 46.0885 129.811 46.3848 129.482C46.681 129.15 46.9294 128.762 47.1299 128.32C47.5036 127.491 47.6904 126.643 47.6904 125.777C47.6904 124.907 47.5947 124.146 47.4033 123.494C47.2165 122.842 46.959 122.268 46.6309 121.771C46.3027 121.27 45.8949 120.869 45.4072 120.568C44.9242 120.263 44.3773 120.11 43.7666 120.11C43.1605 120.11 42.5726 120.34 42.0029 120.801ZM51.6689 125.641C51.6689 125.003 51.751 124.378 51.915 123.768C52.0837 123.157 52.348 122.58 52.708 122.038C53.068 121.496 53.5055 121.024 54.0205 120.623C55.1325 119.757 56.5794 119.324 58.3613 119.324C60.4167 119.324 62.0117 120.199 63.1465 121.949C63.8164 122.979 64.1514 124.121 64.1514 125.374C64.1514 127.475 63.4632 129.063 62.0869 130.139C61.0205 130.973 59.5439 131.39 57.6572 131.39C55.415 131.39 53.7471 130.599 52.6533 129.018C51.9971 128.065 51.6689 126.939 51.6689 125.641ZM56.0029 120.801C55.4333 121.257 54.9821 121.869 54.6494 122.64C54.3213 123.41 54.1572 124.283 54.1572 125.258C54.1572 126.233 54.3008 127.133 54.5879 127.958C54.8796 128.778 55.2965 129.421 55.8389 129.886C56.3857 130.351 56.9782 130.583 57.6162 130.583C58.2588 130.583 58.8057 130.483 59.2568 130.282C59.7126 130.077 60.0885 129.811 60.3848 129.482C60.681 129.15 60.9294 128.762 61.1299 128.32C61.5036 127.491 61.6904 126.643 61.6904 125.777C61.6904 124.907 61.5947 124.146 61.4033 123.494C61.2165 122.842 60.959 122.268 60.6309 121.771C60.3027 121.27 59.8949 120.869 59.4072 120.568C58.9242 120.263 58.3773 120.11 57.7666 120.11C57.1605 120.11 56.5726 120.34 56.0029 120.801ZM72.7783 122.852L72.833 121.676C72.833 121.53 72.6234 121.311 72.2041 121.02C71.402 120.468 70.6318 120.192 69.8936 120.192C69.4561 120.192 69.0755 120.304 68.752 120.527C68.1504 120.933 67.8496 121.437 67.8496 122.038C67.8496 122.635 68.1276 123.107 68.6836 123.453C69.1257 123.727 69.6497 123.964 70.2559 124.164C70.8665 124.36 71.3542 124.526 71.7188 124.663C72.0879 124.795 72.4365 124.959 72.7646 125.155C73.0973 125.347 73.3913 125.563 73.6465 125.805C74.207 126.333 74.4873 127.058 74.4873 127.979C74.4873 129.423 73.8242 130.417 72.498 130.959C71.2812 131.46 69.832 131.561 68.1504 131.26C66.8698 131.032 66.2295 130.795 66.2295 130.549C66.152 128.73 66.1133 127.746 66.1133 127.596C66.1133 127.441 66.2454 127.361 66.5098 127.356C66.7741 127.347 66.929 127.37 66.9746 127.425C67.0202 127.479 67.0498 127.607 67.0635 127.808L67.1523 129.182C67.1706 129.355 67.3483 129.537 67.6855 129.729C68.474 130.184 69.3604 130.412 70.3447 130.412C71.8942 130.412 72.6689 129.806 72.6689 128.594C72.6689 128.092 72.3864 127.689 71.8213 127.384C71.4385 127.174 70.9235 126.962 70.2764 126.748C69.6338 126.534 69.1257 126.358 68.752 126.222C68.3828 126.08 68.0296 125.91 67.6924 125.709C67.3551 125.504 67.0566 125.276 66.7969 125.025C66.2318 124.479 65.9492 123.809 65.9492 123.016C65.9492 122.223 66.1224 121.56 66.4688 121.026C66.8197 120.493 67.2868 120.081 67.8701 119.789C68.458 119.497 69.1439 119.352 69.9277 119.352C70.7572 119.352 71.6777 119.589 72.6895 120.062C72.7259 120.081 72.7555 120.099 72.7783 120.117C72.8057 120.131 72.8239 120.138 72.833 120.138C72.8695 120.028 72.8877 119.889 72.8877 119.721C72.8877 119.548 73.0518 119.461 73.3799 119.461C73.708 119.461 73.8721 119.575 73.8721 119.803L73.7012 122.852C73.7012 123.038 73.5462 123.132 73.2363 123.132C72.931 123.132 72.7783 123.038 72.7783 122.852ZM79.2793 131.082L76.1689 131.137C75.9639 131.137 75.8613 130.984 75.8613 130.679C75.8613 130.369 75.973 130.214 76.1963 130.214H78.0215C78.0397 130.159 78.0488 129.852 78.0488 129.291V122.209C78.0488 121.252 78.001 120.701 77.9053 120.555H76.3398C76.0938 120.555 75.9707 120.402 75.9707 120.097C75.9707 119.787 76.0459 119.632 76.1963 119.632C76.1963 119.632 77.1852 119.65 79.1631 119.687L85.4385 119.632C85.4749 119.559 85.4932 119.372 85.4932 119.071C85.4932 118.903 85.6436 118.818 85.9443 118.818H86.0264C86.3044 118.818 86.4434 118.912 86.4434 119.099L86.416 122.209C86.416 122.378 86.2565 122.462 85.9375 122.462C85.623 122.462 85.4658 122.378 85.4658 122.209V120.671C85.124 120.593 83.9391 120.555 81.9111 120.555H80.3115C80.2751 120.687 80.2568 121.145 80.2568 121.929V124.67C80.2568 124.893 80.3047 125.005 80.4004 125.005H81.3506C83.415 125.005 84.5635 124.959 84.7959 124.868V123.692C84.7959 123.542 84.944 123.467 85.2402 123.467C85.541 123.467 85.6914 123.533 85.6914 123.665L85.6641 125.285L85.6914 126.967C85.6914 127.099 85.541 127.165 85.2402 127.165C84.944 127.165 84.7959 127.072 84.7959 126.885V125.907C84.5954 125.812 83.8389 125.764 82.5264 125.764H80.4824C80.3822 125.764 80.3184 125.775 80.291 125.798C80.2682 125.821 80.2591 125.953 80.2637 126.194C80.2682 126.431 80.2728 126.789 80.2773 127.268C80.2865 127.742 80.2933 128.113 80.2979 128.382C80.3024 128.646 80.3092 128.91 80.3184 129.175C80.3366 129.681 80.3639 129.963 80.4004 130.022L86.252 129.961C86.3613 129.961 86.4251 129.945 86.4434 129.913C86.4616 129.881 86.4707 129.785 86.4707 129.626V128.033C86.4707 127.865 86.612 127.78 86.8945 127.78H87.0039C87.3047 127.78 87.4551 127.865 87.4551 128.033L87.4277 130.863C87.4277 131.046 87.2865 131.137 87.0039 131.137L79.2793 131.082ZM96.4785 131.082L94.5166 131.137C94.2751 131.137 94.1543 130.984 94.1543 130.679C94.1543 130.369 94.2842 130.214 94.5439 130.214H95.4121C95.6445 130.054 96.3395 128.587 97.4971 125.812C98.6546 123.032 99.2881 121.521 99.3975 121.279C99.5068 121.038 99.5866 120.887 99.6367 120.828C99.6868 120.764 99.7301 120.721 99.7666 120.698C99.8076 120.675 99.8509 120.637 99.8965 120.582C99.9967 120.445 100.106 120.181 100.225 119.789C100.348 119.393 100.45 119.146 100.532 119.051C100.619 118.955 100.717 118.907 100.826 118.907C100.94 118.907 101.015 118.916 101.052 118.935C101.093 118.953 101.129 118.982 101.161 119.023C101.198 119.064 101.227 119.108 101.25 119.153C101.277 119.194 101.307 119.256 101.339 119.338C101.371 119.42 101.398 119.493 101.421 119.557C101.735 120.473 102.398 122.202 103.41 124.745C104.786 128.213 105.545 130.036 105.687 130.214H106.527C106.714 130.214 106.808 130.369 106.808 130.679C106.808 130.984 106.687 131.137 106.445 131.137L104.23 131.082L101.4 131.137C101.236 131.137 101.154 130.984 101.154 130.679C101.154 130.369 101.248 130.214 101.435 130.214H103.055C102.918 129.731 102.713 129.102 102.439 128.327C102.171 127.548 102.009 127.083 101.954 126.933C101.904 126.778 101.872 126.693 101.858 126.68C101.845 126.666 101.797 126.659 101.715 126.659H98.5225C98.4085 126.659 98.1693 127.192 97.8047 128.259C97.4401 129.325 97.2305 129.977 97.1758 130.214H98.9668C99.1719 130.214 99.2744 130.369 99.2744 130.679C99.2744 130.984 99.1445 131.137 98.8848 131.137L96.4785 131.082ZM100.197 122.011C100.083 122.011 99.8008 122.649 99.3496 123.925C98.903 125.201 98.6842 125.85 98.6934 125.873C98.707 125.896 98.7435 125.907 98.8027 125.907H101.4C101.533 125.907 101.567 125.823 101.503 125.654C101.444 125.486 101.346 125.203 101.209 124.807C101.049 124.342 100.854 123.761 100.621 123.063C100.389 122.362 100.247 122.011 100.197 122.011ZM117.684 131.082L114.635 131.171C114.448 131.171 114.332 131.134 114.286 131.062C114.241 130.993 114.218 130.85 114.218 130.631C114.218 130.412 114.254 130.28 114.327 130.234C114.405 130.184 114.564 130.159 114.806 130.159H116.146C116.314 130.159 116.398 126.014 116.398 117.725V116.275C116.398 114.311 116.362 113.329 116.289 113.329L114.437 113.391C114.227 113.391 114.09 113.356 114.026 113.288C113.967 113.22 113.938 113.072 113.938 112.844C113.938 112.611 113.969 112.468 114.033 112.413C114.102 112.354 114.236 112.324 114.437 112.324L117.745 112.379L121.409 112.242C123.87 112.242 125.709 112.892 126.926 114.19C127.787 115.111 128.218 116.319 128.218 117.813C128.218 119.901 127.325 121.361 125.538 122.195C124.449 122.706 123.082 122.961 121.437 122.961L119.003 122.879C118.912 122.879 118.855 122.893 118.832 122.92C118.814 122.947 118.805 123.009 118.805 123.104V124.95C118.805 128.423 118.843 130.159 118.921 130.159H120.903C121.067 130.159 121.174 130.191 121.225 130.255C121.275 130.319 121.3 130.449 121.3 130.645C121.3 130.84 121.275 130.977 121.225 131.055C121.174 131.132 121.067 131.171 120.903 131.171L117.684 131.082ZM118.832 121.901C118.832 122.088 119.16 122.182 119.816 122.182C120.473 122.182 121.081 122.132 121.642 122.031C122.202 121.926 122.731 121.756 123.228 121.519C123.729 121.277 124.155 120.974 124.506 120.609C125.262 119.83 125.641 118.757 125.641 117.39C125.641 116.524 125.385 115.765 124.875 115.113C123.831 113.796 122.145 113.138 119.816 113.138C119.406 113.138 119.117 113.147 118.948 113.165C118.871 113.192 118.832 113.669 118.832 114.594V121.901ZM132.408 131.082L129.353 131.137C129.147 131.137 129.045 130.984 129.045 130.679C129.045 130.369 129.157 130.214 129.38 130.214H131.034C131.089 129.991 131.116 129.236 131.116 127.951V124.533C131.116 122.218 131.089 120.892 131.034 120.555H129.551C129.378 120.555 129.259 120.516 129.195 120.438C129.132 120.356 129.1 120.227 129.1 120.049C129.1 119.771 129.25 119.632 129.551 119.632L132.292 119.687L135.601 119.632C135.824 119.632 135.936 119.787 135.936 120.097C135.936 120.402 135.803 120.555 135.539 120.555H133.611C133.534 120.796 133.495 121.459 133.495 122.544V127.835C133.495 129.147 133.552 129.895 133.666 130.077C135.279 130.077 136.599 130.036 137.624 129.954C138.654 129.872 139.196 129.804 139.251 129.749C139.31 129.69 139.354 129.537 139.381 129.291L139.572 127.698C139.6 127.397 139.85 127.318 140.324 127.459C140.479 127.505 140.557 127.603 140.557 127.753C140.557 127.821 140.541 127.979 140.509 128.225C140.409 129.013 140.311 129.863 140.215 130.774C140.192 131.039 139.987 131.171 139.6 131.171L132.408 131.082ZM143.701 131.082L141.739 131.137C141.498 131.137 141.377 130.984 141.377 130.679C141.377 130.369 141.507 130.214 141.767 130.214H142.635C142.867 130.054 143.562 128.587 144.72 125.812C145.877 123.032 146.511 121.521 146.62 121.279C146.729 121.038 146.809 120.887 146.859 120.828C146.91 120.764 146.953 120.721 146.989 120.698C147.03 120.675 147.074 120.637 147.119 120.582C147.219 120.445 147.329 120.181 147.447 119.789C147.57 119.393 147.673 119.146 147.755 119.051C147.841 118.955 147.939 118.907 148.049 118.907C148.163 118.907 148.238 118.916 148.274 118.935C148.315 118.953 148.352 118.982 148.384 119.023C148.42 119.064 148.45 119.108 148.473 119.153C148.5 119.194 148.53 119.256 148.562 119.338C148.593 119.42 148.621 119.493 148.644 119.557C148.958 120.473 149.621 122.202 150.633 124.745C152.009 128.213 152.768 130.036 152.909 130.214H153.75C153.937 130.214 154.03 130.369 154.03 130.679C154.03 130.984 153.91 131.137 153.668 131.137L151.453 131.082L148.623 131.137C148.459 131.137 148.377 130.984 148.377 130.679C148.377 130.369 148.47 130.214 148.657 130.214H150.277C150.141 129.731 149.936 129.102 149.662 128.327C149.393 127.548 149.231 127.083 149.177 126.933C149.127 126.778 149.095 126.693 149.081 126.68C149.067 126.666 149.02 126.659 148.938 126.659H145.745C145.631 126.659 145.392 127.192 145.027 128.259C144.663 129.325 144.453 129.977 144.398 130.214H146.189C146.395 130.214 146.497 130.369 146.497 130.679C146.497 130.984 146.367 131.137 146.107 131.137L143.701 131.082ZM147.42 122.011C147.306 122.011 147.023 122.649 146.572 123.925C146.126 125.201 145.907 125.85 145.916 125.873C145.93 125.896 145.966 125.907 146.025 125.907H148.623C148.755 125.907 148.789 125.823 148.726 125.654C148.666 125.486 148.568 125.203 148.432 124.807C148.272 124.342 148.076 123.761 147.844 123.063C147.611 122.362 147.47 122.011 147.42 122.011ZM157.817 131.082L155.438 131.137C155.233 131.137 155.131 130.984 155.131 130.679C155.131 130.369 155.243 130.214 155.466 130.214H157.065C157.161 129.776 157.3 126.557 157.482 120.555H155.609C155.436 120.555 155.318 120.516 155.254 120.438C155.19 120.356 155.158 120.227 155.158 120.049C155.158 119.771 155.309 119.632 155.609 119.632L158.269 119.687H159.697C159.816 119.687 159.927 119.753 160.032 119.885L166.752 127.473C166.848 127.596 166.905 127.637 166.923 127.596C166.941 127.55 166.95 127.245 166.95 126.68C166.95 126.115 166.927 125.014 166.882 123.378C166.836 121.737 166.784 120.796 166.725 120.555H164.708C164.521 120.555 164.428 120.402 164.428 120.097C164.428 119.787 164.521 119.632 164.708 119.632L167.477 119.687L169.582 119.632C169.751 119.632 169.835 119.762 169.835 120.021V120.138C169.835 120.416 169.721 120.555 169.493 120.555H168.208C168.112 120.842 168.033 122.07 167.969 124.239C167.905 126.404 167.873 127.967 167.873 128.929L167.928 131.082C167.928 131.328 167.839 131.451 167.661 131.451C167.483 131.451 167.301 131.358 167.114 131.171L158.576 121.73L158.296 121.45V123.638C158.296 127.671 158.362 129.863 158.494 130.214H160.593C160.78 130.214 160.873 130.369 160.873 130.679C160.873 130.984 160.78 131.137 160.593 131.137L157.817 131.082Z" fill="#999999"/>
<rect x="273" y="0.5" width="94" height="94" rx="45" fill="#F9FAF9"/>
<rect x="273" y="0.5" width="94" height="94" rx="45" stroke="#7A7A7A"/>
<path d="M317.188 30.625H311.562C310.27 30.625 308.99 30.8796 307.795 31.3743C306.601 31.869 305.516 32.5941 304.602 33.5082C303.688 34.4222 302.963 35.5074 302.468 36.7017C301.973 37.896 301.719 39.1761 301.719 40.4688C301.719 41.7614 301.973 43.0415 302.468 44.2358C302.963 45.4301 303.688 46.5153 304.602 47.4293C305.516 48.3434 306.601 49.0685 307.795 49.5632C308.99 50.0579 310.27 50.3125 311.562 50.3125H317.188V58.75H304.531V64.375H317.188V70H322.812V64.375H328.438C331.048 64.375 333.552 63.3379 335.398 61.4918C337.244 59.6458 338.281 57.142 338.281 54.5312C338.281 51.9205 337.244 49.4167 335.398 47.5707C333.552 45.7246 331.048 44.6875 328.438 44.6875H322.812V36.25H335.469V30.625H322.812V25H317.188V30.625ZM322.812 50.3125H328.438C329.556 50.3125 330.629 50.757 331.421 51.5481C332.212 52.3393 332.656 53.4124 332.656 54.5312C332.656 55.6501 332.212 56.7232 331.421 57.5144C330.629 58.3055 329.556 58.75 328.438 58.75H322.812V50.3125ZM317.188 44.6875H311.562C311.008 44.6875 310.46 44.5784 309.948 44.3664C309.436 44.1544 308.971 43.8436 308.579 43.4519C308.188 43.0601 307.877 42.595 307.665 42.0832C307.453 41.5714 307.344 41.0228 307.344 40.4688C307.344 39.9147 307.453 39.3661 307.665 38.8543C307.877 38.3425 308.188 37.8774 308.579 37.4856C308.971 37.0939 309.436 36.7831 309.948 36.5711C310.46 36.3591 311.008 36.25 311.562 36.25H317.188V44.6875Z" fill="#7A7A7A"/>
<path d="M274.285 131.082L271.236 131.171C271.049 131.171 270.933 131.134 270.888 131.062C270.842 130.993 270.819 130.85 270.819 130.631C270.819 130.412 270.856 130.28 270.929 130.234C271.006 130.184 271.166 130.159 271.407 130.159H272.747C272.916 130.159 273 126.014 273 117.725V116.275C273 114.311 272.964 113.329 272.891 113.329L271.038 113.391C270.828 113.391 270.692 113.356 270.628 113.288C270.569 113.22 270.539 113.072 270.539 112.844C270.539 112.611 270.571 112.468 270.635 112.413C270.703 112.354 270.838 112.324 271.038 112.324L274.347 112.379L278.011 112.242C280.472 112.242 282.311 112.892 283.527 114.19C284.389 115.111 284.819 116.319 284.819 117.813C284.819 119.901 283.926 121.361 282.14 122.195C281.05 122.706 279.683 122.961 278.038 122.961L275.604 122.879C275.513 122.879 275.456 122.893 275.434 122.92C275.415 122.947 275.406 123.009 275.406 123.104V124.95C275.406 128.423 275.445 130.159 275.522 130.159H277.505C277.669 130.159 277.776 130.191 277.826 130.255C277.876 130.319 277.901 130.449 277.901 130.645C277.901 130.84 277.876 130.977 277.826 131.055C277.776 131.132 277.669 131.171 277.505 131.171L274.285 131.082ZM275.434 121.901C275.434 122.088 275.762 122.182 276.418 122.182C277.074 122.182 277.683 122.132 278.243 122.031C278.804 121.926 279.332 121.756 279.829 121.519C280.33 121.277 280.757 120.974 281.107 120.609C281.864 119.83 282.242 118.757 282.242 117.39C282.242 116.524 281.987 115.765 281.477 115.113C280.433 113.796 278.747 113.138 276.418 113.138C276.008 113.138 275.718 113.147 275.55 113.165C275.472 113.192 275.434 113.669 275.434 114.594V121.901ZM286.139 131.082L284.177 131.137C283.935 131.137 283.814 130.984 283.814 130.679C283.814 130.369 283.944 130.214 284.204 130.214H285.072C285.305 130.054 286 128.587 287.157 125.812C288.315 123.032 288.948 121.521 289.058 121.279C289.167 121.038 289.247 120.887 289.297 120.828C289.347 120.764 289.39 120.721 289.427 120.698C289.468 120.675 289.511 120.637 289.557 120.582C289.657 120.445 289.766 120.181 289.885 119.789C290.008 119.393 290.11 119.146 290.192 119.051C290.279 118.955 290.377 118.907 290.486 118.907C290.6 118.907 290.675 118.916 290.712 118.935C290.753 118.953 290.789 118.982 290.821 119.023C290.858 119.064 290.887 119.108 290.91 119.153C290.938 119.194 290.967 119.256 290.999 119.338C291.031 119.42 291.058 119.493 291.081 119.557C291.396 120.473 292.059 122.202 293.07 124.745C294.447 128.213 295.205 130.036 295.347 130.214H296.188C296.374 130.214 296.468 130.369 296.468 130.679C296.468 130.984 296.347 131.137 296.105 131.137L293.891 131.082L291.061 131.137C290.896 131.137 290.814 130.984 290.814 130.679C290.814 130.369 290.908 130.214 291.095 130.214H292.715C292.578 129.731 292.373 129.102 292.1 128.327C291.831 127.548 291.669 127.083 291.614 126.933C291.564 126.778 291.532 126.693 291.519 126.68C291.505 126.666 291.457 126.659 291.375 126.659H288.183C288.069 126.659 287.829 127.192 287.465 128.259C287.1 129.325 286.891 129.977 286.836 130.214H288.627C288.832 130.214 288.935 130.369 288.935 130.679C288.935 130.984 288.805 131.137 288.545 131.137L286.139 131.082ZM289.857 122.011C289.743 122.011 289.461 122.649 289.01 123.925C288.563 125.201 288.344 125.85 288.354 125.873C288.367 125.896 288.404 125.907 288.463 125.907H291.061C291.193 125.907 291.227 125.823 291.163 125.654C291.104 125.486 291.006 125.203 290.869 124.807C290.71 124.342 290.514 123.761 290.281 123.063C290.049 122.362 289.908 122.011 289.857 122.011ZM302.189 131.082L299.441 131.137C299.236 131.137 299.134 130.984 299.134 130.679C299.134 130.369 299.245 130.214 299.469 130.214H301.041C301.096 129.991 301.123 129.236 301.123 127.951V126.885C301.082 126.712 300.485 125.666 299.332 123.747C298.184 121.824 297.521 120.76 297.343 120.555H296.475C296.292 120.555 296.172 120.521 296.112 120.452C296.058 120.379 296.03 120.286 296.03 120.172C296.03 120.053 296.033 119.971 296.037 119.926C296.046 119.88 296.064 119.832 296.092 119.782C296.146 119.682 296.274 119.632 296.475 119.632L298.799 119.687L301.547 119.632C301.729 119.632 301.848 119.671 301.902 119.748C301.962 119.821 301.991 119.942 301.991 120.11C301.991 120.407 301.852 120.555 301.574 120.555H300.255C300.36 120.956 300.74 121.781 301.396 123.029C302.057 124.278 302.431 124.971 302.518 125.107C302.604 125.24 302.657 125.322 302.675 125.354C302.693 125.381 302.704 125.397 302.709 125.401C302.714 125.406 302.723 125.417 302.736 125.436C302.75 125.449 302.759 125.454 302.764 125.449C302.773 125.445 302.786 125.44 302.805 125.436C302.823 125.431 302.896 125.358 303.023 125.217C303.151 125.076 303.534 124.474 304.172 123.412C304.81 122.35 305.22 121.637 305.402 121.272C305.589 120.908 305.721 120.687 305.799 120.609C305.689 120.573 305.541 120.555 305.354 120.555H304.233C304.051 120.555 303.93 120.521 303.871 120.452C303.812 120.379 303.782 120.263 303.782 120.104C303.782 119.789 303.942 119.632 304.261 119.632L306.694 119.687L308.205 119.632C308.488 119.632 308.629 119.787 308.629 120.097C308.629 120.402 308.488 120.555 308.205 120.555C308.014 120.555 307.863 120.555 307.754 120.555C307.649 120.555 307.578 120.559 307.542 120.568C307.506 120.573 307.483 120.577 307.474 120.582C307.465 120.582 307.444 120.593 307.412 120.616C307.385 120.634 307.367 120.65 307.357 120.664C307.348 120.678 307.326 120.707 307.289 120.753C307.257 120.794 307.232 120.828 307.214 120.855C307.196 120.883 307.159 120.933 307.104 121.006C307.054 121.079 307.011 121.143 306.975 121.197L303.529 125.907C303.402 126.076 303.329 126.19 303.311 126.249C303.292 126.308 303.283 126.463 303.283 126.714V129.154C303.283 129.861 303.338 130.214 303.447 130.214H305.266C305.452 130.214 305.546 130.369 305.546 130.679C305.546 130.984 305.452 131.137 305.266 131.137L302.189 131.082ZM312.211 131.082L309.743 131.137C309.538 131.137 309.436 130.984 309.436 130.679C309.436 130.369 309.547 130.214 309.771 130.214H311.452C311.543 129.799 311.621 128.106 311.685 125.135C311.748 122.163 311.783 120.637 311.787 120.555H309.859C309.691 120.555 309.581 120.518 309.531 120.445C309.486 120.368 309.463 120.245 309.463 120.076C309.463 119.903 309.49 119.787 309.545 119.728C309.604 119.664 309.709 119.632 309.859 119.632L312.655 119.687H314.31C314.492 119.687 314.613 119.762 314.672 119.912C317.274 125.08 318.694 127.851 318.931 128.225C319.209 127.787 319.89 126.342 320.975 123.891C322.059 121.439 322.608 120.199 322.622 120.172C322.636 120.14 322.656 120.097 322.684 120.042C322.715 119.983 322.736 119.944 322.745 119.926C322.754 119.903 322.77 119.873 322.793 119.837C322.816 119.8 322.834 119.778 322.848 119.769C322.866 119.755 322.889 119.739 322.916 119.721C322.952 119.698 323.014 119.687 323.101 119.687H324.529L327.271 119.632C327.457 119.632 327.551 119.787 327.551 120.097C327.551 120.402 327.43 120.555 327.188 120.555H325.678C325.623 120.728 325.596 121.398 325.596 122.564C325.596 123.727 325.621 125.233 325.671 127.083C325.721 128.929 325.778 129.972 325.842 130.214H327.667C327.854 130.214 327.947 130.369 327.947 130.679C327.947 130.984 327.854 131.137 327.667 131.137L324.584 131.082L321.562 131.137C321.357 131.137 321.255 130.984 321.255 130.679C321.255 130.369 321.367 130.214 321.59 130.214H323.299C323.354 130.027 323.381 129.195 323.381 127.719C323.381 123.973 323.333 121.687 323.237 120.862C322.772 121.765 321.503 124.529 319.43 129.154C319.316 129.414 319.165 129.683 318.979 129.961C318.792 130.239 318.637 130.496 318.514 130.733C318.395 130.966 318.261 131.082 318.11 131.082C317.965 131.082 317.837 130.97 317.728 130.747L313.045 121.594C312.885 121.266 312.774 121.07 312.71 121.006C312.692 121.079 312.683 121.311 312.683 121.703C312.683 126.903 312.767 129.74 312.936 130.214H314.843C315.03 130.214 315.123 130.369 315.123 130.679C315.123 130.984 315.03 131.137 314.843 131.137L312.211 131.082ZM332.596 131.082L329.485 131.137C329.28 131.137 329.178 130.984 329.178 130.679C329.178 130.369 329.289 130.214 329.513 130.214H331.338C331.356 130.159 331.365 129.852 331.365 129.291V122.209C331.365 121.252 331.317 120.701 331.222 120.555H329.656C329.41 120.555 329.287 120.402 329.287 120.097C329.287 119.787 329.362 119.632 329.513 119.632C329.513 119.632 330.502 119.65 332.479 119.687L338.755 119.632C338.791 119.559 338.81 119.372 338.81 119.071C338.81 118.903 338.96 118.818 339.261 118.818H339.343C339.621 118.818 339.76 118.912 339.76 119.099L339.732 122.209C339.732 122.378 339.573 122.462 339.254 122.462C338.939 122.462 338.782 122.378 338.782 122.209V120.671C338.44 120.593 337.256 120.555 335.228 120.555H333.628C333.591 120.687 333.573 121.145 333.573 121.929V124.67C333.573 124.893 333.621 125.005 333.717 125.005H334.667C336.731 125.005 337.88 124.959 338.112 124.868V123.692C338.112 123.542 338.26 123.467 338.557 123.467C338.857 123.467 339.008 123.533 339.008 123.665L338.98 125.285L339.008 126.967C339.008 127.099 338.857 127.165 338.557 127.165C338.26 127.165 338.112 127.072 338.112 126.885V125.907C337.912 125.812 337.155 125.764 335.843 125.764H333.799C333.699 125.764 333.635 125.775 333.607 125.798C333.585 125.821 333.576 125.953 333.58 126.194C333.585 126.431 333.589 126.789 333.594 127.268C333.603 127.742 333.61 128.113 333.614 128.382C333.619 128.646 333.626 128.91 333.635 129.175C333.653 129.681 333.68 129.963 333.717 130.022L339.568 129.961C339.678 129.961 339.742 129.945 339.76 129.913C339.778 129.881 339.787 129.785 339.787 129.626V128.033C339.787 127.865 339.928 127.78 340.211 127.78H340.32C340.621 127.78 340.771 127.865 340.771 128.033L340.744 130.863C340.744 131.046 340.603 131.137 340.32 131.137L332.596 131.082ZM344.688 131.082L342.31 131.137C342.104 131.137 342.002 130.984 342.002 130.679C342.002 130.369 342.114 130.214 342.337 130.214H343.937C344.032 129.776 344.171 126.557 344.354 120.555H342.48C342.307 120.555 342.189 120.516 342.125 120.438C342.061 120.356 342.029 120.227 342.029 120.049C342.029 119.771 342.18 119.632 342.48 119.632L345.14 119.687H346.568C346.687 119.687 346.799 119.753 346.903 119.885L353.623 127.473C353.719 127.596 353.776 127.637 353.794 127.596C353.812 127.55 353.821 127.245 353.821 126.68C353.821 126.115 353.799 125.014 353.753 123.378C353.707 121.737 353.655 120.796 353.596 120.555H351.579C351.392 120.555 351.299 120.402 351.299 120.097C351.299 119.787 351.392 119.632 351.579 119.632L354.348 119.687L356.453 119.632C356.622 119.632 356.706 119.762 356.706 120.021V120.138C356.706 120.416 356.592 120.555 356.364 120.555H355.079C354.983 120.842 354.904 122.07 354.84 124.239C354.776 126.404 354.744 127.967 354.744 128.929L354.799 131.082C354.799 131.328 354.71 131.451 354.532 131.451C354.354 131.451 354.172 131.358 353.985 131.171L345.447 121.73L345.167 121.45V123.638C345.167 127.671 345.233 129.863 345.365 130.214H347.464C347.651 130.214 347.744 130.369 347.744 130.679C347.744 130.984 347.651 131.137 347.464 131.137L344.688 131.082ZM363.938 131.082L360.773 131.137C360.568 131.137 360.466 130.984 360.466 130.679C360.466 130.369 360.577 130.214 360.801 130.214H362.592C362.637 130.054 362.665 129.674 362.674 129.072C362.688 128.471 362.697 128.097 362.701 127.951L362.79 122.065C362.79 121.204 362.76 120.701 362.701 120.555H361.471C359.812 120.555 358.944 120.621 358.866 120.753L358.675 122.435C358.657 122.562 358.506 122.626 358.224 122.626C357.946 122.626 357.807 122.553 357.807 122.407C357.807 122.339 357.866 121.799 357.984 120.787C358.103 119.775 358.171 119.254 358.189 119.222C358.235 119.14 358.379 119.099 358.62 119.099C358.862 119.099 358.982 119.174 358.982 119.324V119.659C359.055 119.677 359.251 119.687 359.57 119.687H367.268C368.279 119.687 368.84 119.659 368.949 119.604C368.958 119.554 368.967 119.465 368.977 119.338C368.986 119.206 368.995 119.108 369.004 119.044C369.004 118.93 369.125 118.873 369.366 118.873H369.421C369.685 118.873 369.817 118.966 369.817 119.153L369.845 122.154C369.845 122.341 369.699 122.435 369.407 122.435C369.12 122.435 368.977 122.321 368.977 122.093V120.609C368.844 120.573 368.266 120.555 367.24 120.555H365.224C365.091 120.792 365.025 121.708 365.025 123.303V128.45C365.025 129.626 365.091 130.214 365.224 130.214H367.158C367.345 130.214 367.438 130.369 367.438 130.679C367.438 130.984 367.345 131.137 367.158 131.137L363.938 131.082Z" fill="#7A7A7A"/>
<rect x="496.728" y="0.5" width="97.5432" height="97.5421" rx="48.771" fill="#F9FAF9"/>
<rect x="496.728" y="0.5" width="97.5432" height="97.5421" rx="48.771" stroke="#7A7A7A"/>
<path fill-rule="evenodd" clip-rule="evenodd" d="M542.227 26.3539C543.046 25.5355 544.143 25.054 545.3 25.0043C546.457 24.9546 547.59 25.3403 548.477 26.0853L548.773 26.3562L553.171 30.752H559.389C560.556 30.7522 561.681 31.1936 562.537 31.9877C563.393 32.7819 563.917 33.8701 564.005 35.0344L564.018 35.3816V41.5992L568.417 45.9974C569.236 46.8169 569.718 47.9137 569.767 49.0713C569.817 50.2288 569.431 51.363 568.685 52.2497L568.414 52.5437L564.016 56.9418V63.1594C564.017 64.3274 563.575 65.4524 562.781 66.3088C561.987 67.1653 560.898 67.6899 559.734 67.7775L559.389 67.789H553.174L548.775 72.1872C547.956 73.0062 546.859 73.4881 545.702 73.5378C544.544 73.5876 543.41 73.2014 542.523 72.4557L542.229 72.1872L537.831 67.789H531.611C530.443 67.7894 529.318 67.3483 528.462 66.5541C527.605 65.7599 527.081 64.6713 526.993 63.5066L526.981 63.1594V56.9418L522.583 52.5437C521.764 51.7241 521.282 50.6273 521.233 49.4698C521.183 48.3122 521.569 47.1781 522.315 46.2914L522.583 45.9974L526.981 41.5992V35.3816C526.982 34.214 527.423 33.0896 528.217 32.2337C529.011 31.3777 530.1 30.8535 531.264 30.7659L531.611 30.752H537.829L542.227 26.3539Z" fill="#EEAD50"/>
<path fill-rule="evenodd" clip-rule="evenodd" d="M552.627 42.2868L542.803 52.1108L538.711 48.0182C538.276 47.5842 537.687 47.3405 537.073 47.3407C536.459 47.3409 535.87 47.585 535.436 48.0194C535.002 48.4538 534.758 49.0427 534.759 49.6568C534.759 50.2708 535.003 50.8597 535.437 51.2937L541.002 56.8585C541.239 57.0951 541.519 57.2828 541.828 57.4108C542.137 57.5388 542.469 57.6047 542.803 57.6047C543.138 57.6047 543.469 57.5388 543.778 57.4108C544.087 57.2828 544.368 57.0951 544.604 56.8585L555.9 45.5599C556.322 45.1233 556.555 44.5386 556.55 43.9317C556.545 43.3247 556.301 42.7441 555.872 42.315C555.443 41.8858 554.862 41.6423 554.255 41.6371C553.648 41.6318 553.064 41.8651 552.627 42.2868Z" fill="#F9FAF9"/>
<path d="M481.324 120.904L481.413 119.113C481.413 118.831 481.19 118.498 480.743 118.115C480.301 117.732 479.907 117.432 479.561 117.213C478.758 116.707 477.899 116.454 476.983 116.454C476.072 116.454 475.27 116.789 474.577 117.459C473.889 118.129 473.545 118.977 473.545 120.002C473.545 121.023 473.982 121.861 474.857 122.518C475.423 122.941 476.386 123.406 477.749 123.912C479.116 124.418 480.071 124.812 480.613 125.095C481.771 125.71 482.571 126.464 483.013 127.357C483.327 127.995 483.484 128.693 483.484 129.449C483.484 130.206 483.364 130.882 483.122 131.479C482.885 132.076 482.562 132.591 482.151 133.024C481.741 133.453 481.265 133.822 480.723 134.132C479.643 134.743 478.444 135.048 477.127 135.048C475.477 135.048 473.973 134.811 472.615 134.337C471.882 134.082 471.508 133.856 471.494 133.66C471.485 133.46 471.453 133.015 471.398 132.327C471.28 130.741 471.221 129.868 471.221 129.709C471.221 129.549 471.223 129.451 471.228 129.415C471.232 129.379 471.248 129.338 471.275 129.292C471.316 129.21 471.437 129.169 471.638 129.169H471.774C471.966 129.169 472.1 129.203 472.178 129.271C472.255 129.335 472.299 129.456 472.308 129.634L472.479 132.266C472.497 132.498 472.798 132.749 473.381 133.018C473.969 133.286 474.646 133.51 475.411 133.688C476.181 133.865 476.863 133.954 477.455 133.954C478.048 133.954 478.622 133.813 479.178 133.53C479.734 133.243 480.178 132.844 480.511 132.334C480.848 131.824 481.017 131.306 481.017 130.782C481.017 130.258 480.93 129.814 480.757 129.449C480.588 129.085 480.381 128.777 480.135 128.526C479.889 128.276 479.551 128.03 479.123 127.788C478.531 127.446 477.861 127.13 477.113 126.838C476.37 126.542 475.896 126.353 475.691 126.271C475.486 126.184 475.197 126.056 474.823 125.888C474.454 125.719 474.167 125.573 473.962 125.45C473.757 125.327 473.499 125.165 473.189 124.965C472.884 124.76 472.645 124.566 472.472 124.384C472.299 124.197 472.107 123.974 471.897 123.714C471.692 123.45 471.537 123.181 471.433 122.907C471.177 122.242 471.05 121.608 471.05 121.007C471.05 120.401 471.13 119.856 471.289 119.373C471.449 118.89 471.667 118.455 471.945 118.067C472.223 117.675 472.554 117.318 472.937 116.994C473.324 116.671 473.741 116.399 474.188 116.181C475.131 115.729 476.015 115.504 476.84 115.504C477.669 115.504 478.385 115.581 478.986 115.736C479.588 115.891 480.11 116.126 480.552 116.44C480.998 116.75 481.274 116.905 481.379 116.905C481.429 116.905 481.463 116.766 481.481 116.488C481.504 116.21 481.541 116.046 481.591 115.996C481.646 115.946 481.796 115.921 482.042 115.921C482.288 115.921 482.445 115.946 482.514 115.996C482.582 116.046 482.616 116.181 482.616 116.399L482.445 120.85C482.445 121.046 482.418 121.175 482.363 121.239C482.309 121.299 482.163 121.328 481.926 121.328C481.689 121.328 481.529 121.296 481.447 121.232C481.365 121.169 481.324 121.059 481.324 120.904ZM496.596 123.229L498.865 123.174C499.089 123.174 499.2 123.329 499.2 123.639C499.2 123.944 499.059 124.097 498.776 124.097H497.826C497.771 124.27 497.744 124.933 497.744 126.086V134.262C497.744 134.403 497.694 134.517 497.594 134.604C497.493 134.695 497.336 134.74 497.122 134.74C496.912 134.74 496.728 134.638 496.568 134.433C496.464 134.282 496.318 134.061 496.131 133.77C495.949 133.478 495.846 133.325 495.823 133.312C495.805 133.298 495.739 133.323 495.625 133.387C495.516 133.451 495.411 133.51 495.311 133.564C495.215 133.615 495.078 133.685 494.9 133.776C494.727 133.868 494.554 133.95 494.381 134.022C494.212 134.095 494.019 134.175 493.8 134.262C493.581 134.348 493.358 134.426 493.13 134.494C492.902 134.558 492.667 134.619 492.426 134.679C491.296 134.938 490.19 134.929 489.11 134.651C487.784 134.314 487 133.546 486.759 132.348C486.69 132.01 486.656 131.632 486.656 131.213V128.075C486.656 125.787 486.627 124.461 486.567 124.097H485.453C485.28 124.097 485.161 124.058 485.098 123.98C485.034 123.898 485.002 123.769 485.002 123.591C485.002 123.313 485.152 123.174 485.453 123.174L487.75 123.229L490.771 123.174C490.995 123.174 491.106 123.329 491.106 123.639C491.106 123.944 490.967 124.097 490.689 124.097H488.98C488.921 124.284 488.892 124.947 488.892 126.086V130.816C488.892 132.22 489.491 133.132 490.689 133.551C491.027 133.669 491.4 133.729 491.811 133.729C492.225 133.729 492.61 133.701 492.966 133.646C493.321 133.592 493.654 133.498 493.964 133.366C494.278 133.229 494.545 133.056 494.764 132.847C495.219 132.405 495.465 131.767 495.502 130.933C495.52 130.673 495.529 129.545 495.529 127.549C495.529 125.553 495.484 124.402 495.393 124.097H493.882C493.709 124.097 493.59 124.058 493.526 123.98C493.463 123.898 493.431 123.769 493.431 123.591C493.431 123.313 493.581 123.174 493.882 123.174L496.596 123.229ZM503.644 134.624L500.875 134.679C500.647 134.679 500.533 134.526 500.533 134.221C500.533 133.911 500.647 133.756 500.875 133.756H502.55C502.627 133.628 502.666 133.152 502.666 132.327V127.904C502.666 125.63 502.609 124.361 502.495 124.097H500.813C500.554 124.097 500.424 123.949 500.424 123.652C500.424 123.352 500.545 123.201 500.786 123.201L503.671 123.229L506.699 123.174C507.77 123.174 508.522 123.242 508.955 123.379C509.393 123.516 509.737 123.657 509.987 123.803C510.243 123.944 510.452 124.11 510.616 124.302C510.99 124.744 511.177 125.311 511.177 126.004C511.177 127.257 510.427 128.134 508.928 128.636C508.691 128.713 508.561 128.754 508.538 128.759C508.515 128.763 508.499 128.768 508.49 128.772C510.655 129.228 511.737 130.208 511.737 131.712C511.737 133.672 510.058 134.651 506.699 134.651L503.644 134.624ZM504.99 129.224C504.913 129.224 504.874 129.26 504.874 129.333V130.933C504.874 132.596 504.931 133.537 505.045 133.756H506.33C507.251 133.756 507.9 133.649 508.278 133.435C508.661 133.216 508.932 133.013 509.092 132.826C509.379 132.484 509.522 132.086 509.522 131.63C509.522 130.026 508.431 129.224 506.248 129.224H504.99ZM506.474 128.465L507.342 128.492C507.857 128.492 508.26 128.276 508.552 127.843C508.843 127.405 508.989 126.842 508.989 126.154C508.989 125.466 508.718 124.924 508.176 124.527C507.638 124.131 506.92 123.933 506.022 123.933C505.635 123.933 505.273 123.951 504.936 123.987C504.895 124.192 504.874 124.78 504.874 125.751V128.438L505.072 128.465H506.474ZM520.638 126.394L520.692 125.218C520.692 125.072 520.483 124.853 520.063 124.562C519.261 124.01 518.491 123.734 517.753 123.734C517.315 123.734 516.935 123.846 516.611 124.069C516.01 124.475 515.709 124.979 515.709 125.58C515.709 126.177 515.987 126.649 516.543 126.995C516.985 127.269 517.509 127.506 518.115 127.706C518.726 127.902 519.214 128.068 519.578 128.205C519.947 128.337 520.296 128.501 520.624 128.697C520.957 128.889 521.251 129.105 521.506 129.347C522.066 129.875 522.347 130.6 522.347 131.521C522.347 132.965 521.684 133.959 520.357 134.501C519.141 135.002 517.691 135.103 516.01 134.802C514.729 134.574 514.089 134.337 514.089 134.091C514.011 132.272 513.973 131.288 513.973 131.138C513.973 130.983 514.105 130.903 514.369 130.898C514.633 130.889 514.788 130.912 514.834 130.967C514.88 131.021 514.909 131.149 514.923 131.35L515.012 132.724C515.03 132.897 515.208 133.079 515.545 133.271C516.333 133.726 517.22 133.954 518.204 133.954C519.754 133.954 520.528 133.348 520.528 132.136C520.528 131.634 520.246 131.231 519.681 130.926C519.298 130.716 518.783 130.504 518.136 130.29C517.493 130.076 516.985 129.9 516.611 129.764C516.242 129.622 515.889 129.451 515.552 129.251C515.215 129.046 514.916 128.818 514.656 128.567C514.091 128.021 513.809 127.351 513.809 126.558C513.809 125.765 513.982 125.102 514.328 124.568C514.679 124.035 515.146 123.623 515.729 123.331C516.317 123.039 517.003 122.894 517.787 122.894C518.617 122.894 519.537 123.131 520.549 123.604C520.585 123.623 520.615 123.641 520.638 123.659C520.665 123.673 520.683 123.68 520.692 123.68C520.729 123.57 520.747 123.431 520.747 123.263C520.747 123.09 520.911 123.003 521.239 123.003C521.567 123.003 521.731 123.117 521.731 123.345L521.561 126.394C521.561 126.58 521.406 126.674 521.096 126.674C520.79 126.674 520.638 126.58 520.638 126.394ZM534.419 127.795L534.501 125.888C534.501 125.833 534.403 125.71 534.207 125.519C534.016 125.323 533.799 125.136 533.558 124.958C533.316 124.78 533.036 124.605 532.717 124.432C532.029 124.058 531.295 123.871 530.516 123.871C529.736 123.871 529.05 124.083 528.458 124.507C527.866 124.926 527.394 125.519 527.043 126.284C526.697 127.05 526.523 127.843 526.523 128.663C526.523 129.479 526.628 130.194 526.838 130.81C527.048 131.425 527.337 131.963 527.706 132.423C528.508 133.425 529.549 133.927 530.83 133.927C531.723 133.927 532.496 133.806 533.147 133.564C533.804 133.323 534.291 133.043 534.61 132.724C534.67 132.396 534.704 131.99 534.713 131.507C534.727 131.019 534.74 130.677 534.754 130.481C534.772 130.295 534.934 130.201 535.239 130.201C535.549 130.201 535.704 130.313 535.704 130.536C535.704 131.416 535.668 132.377 535.595 133.421C535.586 133.562 535.305 133.763 534.754 134.022C534.207 134.278 533.519 134.512 532.689 134.727C531.86 134.941 531.088 135.048 530.372 135.048C529.657 135.048 528.964 134.966 528.294 134.802C527.629 134.642 527.022 134.394 526.476 134.057C525.929 133.715 525.462 133.298 525.074 132.806C524.268 131.767 523.864 130.404 523.864 128.718C523.864 127.975 524.035 127.248 524.377 126.537C524.723 125.826 525.181 125.204 525.751 124.671C526.321 124.138 526.997 123.709 527.781 123.386C528.57 123.058 529.381 122.894 530.215 122.894C531.732 122.894 533.198 123.322 534.61 124.179L534.645 123.96C534.69 123.696 534.854 123.563 535.137 123.563C535.424 123.563 535.567 123.677 535.567 123.905L535.451 127.795C535.451 127.982 535.278 128.075 534.932 128.075C534.59 128.075 534.419 127.982 534.419 127.795ZM540.332 134.624L537.673 134.679C537.45 134.679 537.338 134.526 537.338 134.221C537.338 133.911 537.45 133.756 537.673 133.756H539.129C539.206 133.628 539.245 133.152 539.245 132.327V127.904C539.245 125.63 539.188 124.361 539.074 124.097H537.618C537.358 124.097 537.229 123.949 537.229 123.652C537.229 123.352 537.349 123.201 537.591 123.201L540.25 123.229L543.36 123.174C545.712 123.174 547.136 123.791 547.633 125.026C547.751 125.318 547.811 125.644 547.811 126.004C547.811 127.316 546.936 128.285 545.186 128.909C545.149 128.918 545.09 128.939 545.008 128.971C547.204 129.536 548.326 130.832 548.371 132.86C548.389 133.353 548.417 133.626 548.453 133.681C548.494 133.731 548.533 133.756 548.569 133.756H549.465C549.583 133.756 549.659 133.795 549.69 133.872C549.727 133.95 549.745 134.089 549.745 134.289C549.745 134.549 549.622 134.679 549.376 134.679L546.3 134.624C546.149 134.624 546.074 134.551 546.074 134.405V133.366C546.074 132.177 546.006 131.423 545.869 131.104C545.732 130.785 545.587 130.52 545.432 130.311C545.277 130.101 545.09 129.939 544.871 129.825C544.352 129.552 543.698 129.415 542.909 129.415H541.569C541.492 129.415 541.453 129.454 541.453 129.531V130.933C541.453 132.596 541.51 133.537 541.624 133.756H543.299C543.486 133.756 543.579 133.911 543.579 134.221C543.579 134.526 543.486 134.679 543.299 134.679L540.332 134.624ZM541.453 128.772C541.544 128.791 541.61 128.8 541.651 128.8H543.552C544.536 128.8 545.167 128.303 545.445 127.31C545.527 127.032 545.568 126.722 545.568 126.38C545.568 126.034 545.486 125.703 545.322 125.389C545.158 125.07 544.935 124.805 544.652 124.596C544.064 124.154 543.354 123.933 542.52 123.933C542.182 123.933 541.845 123.951 541.508 123.987C541.471 124.17 541.453 124.757 541.453 125.751V128.772ZM554.072 134.624L551.044 134.679C550.839 134.679 550.736 134.526 550.736 134.221C550.736 133.911 550.848 133.756 551.071 133.756H552.78C552.835 133.533 552.862 132.778 552.862 131.493V128.075C552.862 125.76 552.835 124.434 552.78 124.097H551.242C551.074 124.097 550.964 124.06 550.914 123.987C550.868 123.91 550.846 123.778 550.846 123.591C550.846 123.313 550.996 123.174 551.297 123.174L553.956 123.229L557.012 123.174C557.217 123.174 557.319 123.329 557.319 123.639C557.319 123.944 557.187 124.097 556.923 124.097H555.275C555.216 124.284 555.187 124.947 555.187 126.086V131.521C555.187 132.628 555.234 133.373 555.33 133.756H557.148C557.335 133.756 557.429 133.911 557.429 134.221C557.429 134.526 557.335 134.679 557.148 134.679L554.072 134.624ZM562.084 134.624L559.172 134.679C558.949 134.679 558.837 134.526 558.837 134.221C558.837 133.911 558.949 133.756 559.172 133.756H560.854C560.926 133.633 560.963 133.157 560.963 132.327V127.904C560.963 125.63 560.906 124.361 560.792 124.097H559.056C558.796 124.097 558.666 123.949 558.666 123.652C558.666 123.352 558.787 123.201 559.028 123.201L561.968 123.229L564.996 123.174C567.38 123.174 568.879 123.81 569.494 125.081C569.686 125.468 569.781 125.917 569.781 126.428C569.781 126.938 569.69 127.394 569.508 127.795C569.326 128.191 569.082 128.515 568.776 128.766C568.476 129.016 568.109 129.221 567.676 129.381C566.901 129.668 565.969 129.812 564.88 129.812L563.26 129.757C563.182 129.757 563.144 129.793 563.144 129.866V130.933C563.144 132.582 563.21 133.523 563.342 133.756H565.386C565.573 133.756 565.666 133.911 565.666 134.221C565.666 134.526 565.573 134.679 565.386 134.679L562.084 134.624ZM563.144 128.943C563.144 129.053 563.21 129.107 563.342 129.107C565.602 129.107 566.956 128.629 567.402 127.672C567.535 127.394 567.601 127.07 567.601 126.701C567.601 125.844 567.311 125.188 566.732 124.732C566.154 124.272 565.352 124.042 564.326 124.042C563.843 124.042 563.469 124.06 563.205 124.097C563.164 124.261 563.144 124.812 563.144 125.751V128.943ZM577.157 134.624L573.992 134.679C573.787 134.679 573.685 134.526 573.685 134.221C573.685 133.911 573.796 133.756 574.02 133.756H575.811C575.856 133.596 575.883 133.216 575.893 132.614C575.906 132.013 575.915 131.639 575.92 131.493L576.009 125.607C576.009 124.746 575.979 124.243 575.92 124.097H574.689C573.031 124.097 572.162 124.163 572.085 124.295L571.894 125.977C571.875 126.104 571.725 126.168 571.442 126.168C571.164 126.168 571.025 126.095 571.025 125.949C571.025 125.881 571.085 125.341 571.203 124.329C571.322 123.317 571.39 122.796 571.408 122.764C571.454 122.682 571.597 122.641 571.839 122.641C572.08 122.641 572.201 122.716 572.201 122.866V123.201C572.274 123.219 572.47 123.229 572.789 123.229H580.486C581.498 123.229 582.059 123.201 582.168 123.146C582.177 123.096 582.186 123.007 582.195 122.88C582.204 122.748 582.214 122.65 582.223 122.586C582.223 122.472 582.343 122.415 582.585 122.415H582.64C582.904 122.415 583.036 122.508 583.036 122.695L583.063 125.696C583.063 125.883 582.918 125.977 582.626 125.977C582.339 125.977 582.195 125.863 582.195 125.635V124.151C582.063 124.115 581.484 124.097 580.459 124.097H578.442C578.31 124.334 578.244 125.25 578.244 126.845V131.992C578.244 133.168 578.31 133.756 578.442 133.756H580.377C580.564 133.756 580.657 133.911 580.657 134.221C580.657 134.526 580.564 134.679 580.377 134.679L577.157 134.624ZM587.486 134.624L584.458 134.679C584.253 134.679 584.15 134.526 584.15 134.221C584.15 133.911 584.262 133.756 584.485 133.756H586.194C586.249 133.533 586.276 132.778 586.276 131.493V128.075C586.276 125.76 586.249 124.434 586.194 124.097H584.656C584.488 124.097 584.378 124.06 584.328 123.987C584.283 123.91 584.26 123.778 584.26 123.591C584.26 123.313 584.41 123.174 584.711 123.174L587.37 123.229L590.426 123.174C590.631 123.174 590.733 123.329 590.733 123.639C590.733 123.944 590.601 124.097 590.337 124.097H588.689C588.63 124.284 588.601 124.947 588.601 126.086V131.521C588.601 132.628 588.648 133.373 588.744 133.756H590.562C590.749 133.756 590.843 133.911 590.843 134.221C590.843 134.526 590.749 134.679 590.562 134.679L587.486 134.624ZM592.224 129.183C592.224 128.545 592.306 127.92 592.47 127.31C592.638 126.699 592.903 126.122 593.263 125.58C593.623 125.038 594.06 124.566 594.575 124.165C595.687 123.299 597.134 122.866 598.916 122.866C600.971 122.866 602.566 123.741 603.701 125.491C604.371 126.521 604.706 127.663 604.706 128.916C604.706 131.017 604.018 132.605 602.642 133.681C601.575 134.515 600.099 134.932 598.212 134.932C595.97 134.932 594.302 134.141 593.208 132.56C592.552 131.607 592.224 130.481 592.224 129.183ZM596.558 124.343C595.988 124.799 595.537 125.411 595.204 126.182C594.876 126.952 594.712 127.825 594.712 128.8C594.712 129.775 594.855 130.675 595.143 131.5C595.434 132.32 595.851 132.963 596.394 133.428C596.94 133.893 597.533 134.125 598.171 134.125C598.813 134.125 599.36 134.025 599.812 133.824C600.267 133.619 600.643 133.353 600.939 133.024C601.236 132.692 601.484 132.304 601.685 131.862C602.058 131.033 602.245 130.185 602.245 129.319C602.245 128.449 602.149 127.688 601.958 127.036C601.771 126.384 601.514 125.81 601.186 125.313C600.857 124.812 600.45 124.411 599.962 124.11C599.479 123.805 598.932 123.652 598.321 123.652C597.715 123.652 597.127 123.882 596.558 124.343ZM608.767 134.624L606.388 134.679C606.183 134.679 606.08 134.526 606.08 134.221C606.08 133.911 606.192 133.756 606.415 133.756H608.015C608.11 133.318 608.249 130.099 608.432 124.097H606.559C606.385 124.097 606.267 124.058 606.203 123.98C606.139 123.898 606.107 123.769 606.107 123.591C606.107 123.313 606.258 123.174 606.559 123.174L609.218 123.229H610.646C610.765 123.229 610.877 123.295 610.981 123.427L617.701 131.015C617.797 131.138 617.854 131.179 617.872 131.138C617.89 131.092 617.899 130.787 617.899 130.222C617.899 129.657 617.877 128.556 617.831 126.92C617.785 125.279 617.733 124.338 617.674 124.097H615.657C615.47 124.097 615.377 123.944 615.377 123.639C615.377 123.329 615.47 123.174 615.657 123.174L618.426 123.229L620.531 123.174C620.7 123.174 620.784 123.304 620.784 123.563V123.68C620.784 123.958 620.67 124.097 620.442 124.097H619.157C619.062 124.384 618.982 125.612 618.918 127.781C618.854 129.946 618.822 131.509 618.822 132.471L618.877 134.624C618.877 134.87 618.788 134.993 618.61 134.993C618.433 134.993 618.25 134.9 618.063 134.713L609.525 125.272L609.245 124.992V127.18C609.245 131.213 609.311 133.405 609.443 133.756H611.542C611.729 133.756 611.822 133.911 611.822 134.221C611.822 134.526 611.729 134.679 611.542 134.679L608.767 134.624ZM497.566 165.328L497.874 165.355C498.152 165.378 498.291 165.481 498.291 165.663C498.291 165.937 498.143 167.224 497.847 169.525C497.824 169.685 497.598 169.906 497.17 170.188C496.746 170.466 496.213 170.747 495.57 171.029C493.975 171.727 492.335 172.075 490.648 172.075C488.898 172.075 487.276 171.724 485.781 171.022C484.286 170.316 483.079 169.229 482.158 167.762C481.21 166.253 480.736 164.387 480.736 162.163C480.736 158.677 482.094 156.006 484.811 154.151C486.501 152.994 488.504 152.415 490.819 152.415C492.834 152.415 494.693 153.03 496.397 154.261C496.571 154.388 496.68 154.47 496.726 154.507C496.776 154.543 496.824 154.573 496.869 154.596C496.919 154.614 496.953 154.612 496.972 154.589C496.994 154.562 497.006 154.509 497.006 154.432V153.68C497.006 153.502 497.035 153.383 497.095 153.324C497.159 153.26 497.3 153.229 497.519 153.229C497.742 153.229 497.904 153.258 498.004 153.317C498.104 153.377 498.154 153.497 498.154 153.68L498.038 159.224C498.038 159.397 498.002 159.506 497.929 159.552C497.86 159.593 497.708 159.613 497.471 159.613C497.238 159.613 497.083 159.59 497.006 159.545C496.928 159.495 496.89 159.397 496.89 159.251L497.006 156.674C497.006 156.464 496.707 156.12 496.11 155.642C495.518 155.163 494.973 154.776 494.477 154.479C493.287 153.778 492.002 153.427 490.621 153.427C488.229 153.427 486.362 154.598 485.022 156.94C484.179 158.417 483.758 160.176 483.758 162.218C483.758 163.375 483.958 164.483 484.359 165.54C484.765 166.597 485.31 167.513 485.993 168.288C486.677 169.058 487.493 169.674 488.44 170.134C489.393 170.59 490.277 170.817 491.093 170.817C491.909 170.817 492.606 170.763 493.185 170.653C493.768 170.544 494.267 170.41 494.682 170.25C495.096 170.09 495.47 169.924 495.803 169.751C496.459 169.4 496.794 169.147 496.808 168.992L497.17 165.745C497.215 165.467 497.348 165.328 497.566 165.328ZM500.8 166.183C500.8 165.545 500.882 164.92 501.046 164.31C501.215 163.699 501.479 163.122 501.839 162.58C502.199 162.038 502.636 161.566 503.151 161.165C504.263 160.299 505.71 159.866 507.492 159.866C509.548 159.866 511.143 160.741 512.277 162.491C512.947 163.521 513.282 164.663 513.282 165.916C513.282 168.017 512.594 169.605 511.218 170.681C510.151 171.515 508.675 171.932 506.788 171.932C504.546 171.932 502.878 171.141 501.784 169.56C501.128 168.607 500.8 167.481 500.8 166.183ZM505.134 161.343C504.564 161.799 504.113 162.411 503.78 163.182C503.452 163.952 503.288 164.825 503.288 165.8C503.288 166.775 503.432 167.675 503.719 168.5C504.01 169.32 504.427 169.963 504.97 170.428C505.517 170.893 506.109 171.125 506.747 171.125C507.39 171.125 507.937 171.025 508.388 170.824C508.843 170.619 509.219 170.353 509.516 170.024C509.812 169.692 510.06 169.304 510.261 168.862C510.634 168.033 510.821 167.185 510.821 166.319C510.821 165.449 510.726 164.688 510.534 164.036C510.347 163.384 510.09 162.81 509.762 162.313C509.434 161.812 509.026 161.411 508.538 161.11C508.055 160.805 507.508 160.652 506.897 160.652C506.291 160.652 505.703 160.882 505.134 161.343ZM517.432 171.624L514.964 171.679C514.759 171.679 514.656 171.526 514.656 171.221C514.656 170.911 514.768 170.756 514.991 170.756H516.673C516.764 170.341 516.841 168.648 516.905 165.677C516.969 162.705 517.003 161.179 517.008 161.097H515.08C514.911 161.097 514.802 161.06 514.752 160.987C514.706 160.91 514.684 160.787 514.684 160.618C514.684 160.445 514.711 160.329 514.766 160.27C514.825 160.206 514.93 160.174 515.08 160.174L517.876 160.229H519.53C519.713 160.229 519.833 160.304 519.893 160.454C522.495 165.622 523.914 168.393 524.151 168.767C524.429 168.329 525.111 166.884 526.195 164.433C527.28 161.981 527.829 160.741 527.843 160.714C527.856 160.682 527.877 160.639 527.904 160.584C527.936 160.525 527.957 160.486 527.966 160.468C527.975 160.445 527.991 160.415 528.014 160.379C528.036 160.342 528.055 160.32 528.068 160.311C528.087 160.297 528.109 160.281 528.137 160.263C528.173 160.24 528.235 160.229 528.321 160.229H529.75L532.491 160.174C532.678 160.174 532.771 160.329 532.771 160.639C532.771 160.944 532.651 161.097 532.409 161.097H530.898C530.844 161.27 530.816 161.94 530.816 163.106C530.816 164.269 530.841 165.775 530.892 167.625C530.942 169.471 530.999 170.514 531.062 170.756H532.888C533.075 170.756 533.168 170.911 533.168 171.221C533.168 171.526 533.075 171.679 532.888 171.679L529.805 171.624L526.783 171.679C526.578 171.679 526.476 171.526 526.476 171.221C526.476 170.911 526.587 170.756 526.811 170.756H528.52C528.574 170.569 528.602 169.737 528.602 168.261C528.602 164.515 528.554 162.229 528.458 161.404C527.993 162.307 526.724 165.071 524.65 169.696C524.536 169.956 524.386 170.225 524.199 170.503C524.012 170.781 523.857 171.038 523.734 171.275C523.616 171.508 523.481 171.624 523.331 171.624C523.185 171.624 523.058 171.512 522.948 171.289L518.266 162.136C518.106 161.808 517.994 161.612 517.931 161.548C517.912 161.621 517.903 161.853 517.903 162.245C517.903 167.445 517.988 170.282 518.156 170.756H520.063C520.25 170.756 520.344 170.911 520.344 171.221C520.344 171.526 520.25 171.679 520.063 171.679L517.432 171.624ZM537.816 171.624L534.904 171.679C534.681 171.679 534.569 171.526 534.569 171.221C534.569 170.911 534.681 170.756 534.904 170.756H536.586C536.659 170.633 536.695 170.157 536.695 169.327V164.904C536.695 162.63 536.638 161.361 536.524 161.097H534.788C534.528 161.097 534.398 160.949 534.398 160.652C534.398 160.352 534.519 160.201 534.761 160.201L537.7 160.229L540.729 160.174C543.112 160.174 544.611 160.81 545.227 162.081C545.418 162.468 545.514 162.917 545.514 163.428C545.514 163.938 545.423 164.394 545.24 164.795C545.058 165.191 544.814 165.515 544.509 165.766C544.208 166.016 543.841 166.221 543.408 166.381C542.633 166.668 541.701 166.812 540.612 166.812L538.992 166.757C538.915 166.757 538.876 166.793 538.876 166.866V167.933C538.876 169.582 538.942 170.523 539.074 170.756H541.118C541.305 170.756 541.398 170.911 541.398 171.221C541.398 171.526 541.305 171.679 541.118 171.679L537.816 171.624ZM538.876 165.943C538.876 166.053 538.942 166.107 539.074 166.107C541.335 166.107 542.688 165.629 543.135 164.672C543.267 164.394 543.333 164.07 543.333 163.701C543.333 162.844 543.044 162.188 542.465 161.732C541.886 161.272 541.084 161.042 540.059 161.042C539.576 161.042 539.202 161.06 538.938 161.097C538.896 161.261 538.876 161.812 538.876 162.751V165.943ZM550.258 171.624L547.202 171.679C546.997 171.679 546.895 171.526 546.895 171.221C546.895 170.911 547.006 170.756 547.229 170.756H548.884C548.938 170.533 548.966 169.778 548.966 168.493V165.075C548.966 162.76 548.938 161.434 548.884 161.097H547.4C547.227 161.097 547.109 161.058 547.045 160.98C546.981 160.898 546.949 160.769 546.949 160.591C546.949 160.313 547.1 160.174 547.4 160.174L550.142 160.229L553.45 160.174C553.674 160.174 553.785 160.329 553.785 160.639C553.785 160.944 553.653 161.097 553.389 161.097H551.461C551.383 161.338 551.345 162.001 551.345 163.086V168.377C551.345 169.689 551.402 170.437 551.516 170.619C553.129 170.619 554.448 170.578 555.474 170.496C556.504 170.414 557.046 170.346 557.101 170.291C557.16 170.232 557.203 170.079 557.23 169.833L557.422 168.24C557.449 167.939 557.7 167.86 558.174 168.001C558.329 168.047 558.406 168.145 558.406 168.295C558.406 168.363 558.39 168.521 558.358 168.767C558.258 169.555 558.16 170.405 558.064 171.316C558.042 171.581 557.837 171.713 557.449 171.713L550.258 171.624ZM562.781 171.624L559.671 171.679C559.466 171.679 559.363 171.526 559.363 171.221C559.363 170.911 559.475 170.756 559.698 170.756H561.523C561.542 170.701 561.551 170.394 561.551 169.833V162.751C561.551 161.794 561.503 161.243 561.407 161.097H559.842C559.596 161.097 559.473 160.944 559.473 160.639C559.473 160.329 559.548 160.174 559.698 160.174C559.698 160.174 560.687 160.192 562.665 160.229L568.94 160.174C568.977 160.101 568.995 159.914 568.995 159.613C568.995 159.445 569.146 159.36 569.446 159.36H569.528C569.806 159.36 569.945 159.454 569.945 159.641L569.918 162.751C569.918 162.92 569.758 163.004 569.439 163.004C569.125 163.004 568.968 162.92 568.968 162.751V161.213C568.626 161.135 567.441 161.097 565.413 161.097H563.813C563.777 161.229 563.759 161.687 563.759 162.471V165.212C563.759 165.435 563.807 165.547 563.902 165.547H564.853C566.917 165.547 568.065 165.501 568.298 165.41V164.234C568.298 164.084 568.446 164.009 568.742 164.009C569.043 164.009 569.193 164.075 569.193 164.207L569.166 165.827L569.193 167.509C569.193 167.641 569.043 167.707 568.742 167.707C568.446 167.707 568.298 167.614 568.298 167.427V166.449C568.097 166.354 567.341 166.306 566.028 166.306H563.984C563.884 166.306 563.82 166.317 563.793 166.34C563.77 166.363 563.761 166.495 563.766 166.736C563.77 166.973 563.775 167.331 563.779 167.81C563.788 168.284 563.795 168.655 563.8 168.924C563.804 169.188 563.811 169.452 563.82 169.717C563.839 170.223 563.866 170.505 563.902 170.564L569.754 170.503C569.863 170.503 569.927 170.487 569.945 170.455C569.964 170.423 569.973 170.327 569.973 170.168V168.575C569.973 168.407 570.114 168.322 570.396 168.322H570.506C570.807 168.322 570.957 168.407 570.957 168.575L570.93 171.405C570.93 171.588 570.788 171.679 570.506 171.679L562.781 171.624ZM578.183 171.624L575.018 171.679C574.812 171.679 574.71 171.526 574.71 171.221C574.71 170.911 574.822 170.756 575.045 170.756H576.836C576.882 170.596 576.909 170.216 576.918 169.614C576.932 169.013 576.941 168.639 576.945 168.493L577.034 162.607C577.034 161.746 577.005 161.243 576.945 161.097H575.715C574.056 161.097 573.188 161.163 573.11 161.295L572.919 162.977C572.901 163.104 572.75 163.168 572.468 163.168C572.19 163.168 572.051 163.095 572.051 162.949C572.051 162.881 572.11 162.341 572.229 161.329C572.347 160.317 572.415 159.796 572.434 159.764C572.479 159.682 572.623 159.641 572.864 159.641C573.106 159.641 573.227 159.716 573.227 159.866V160.201C573.299 160.219 573.495 160.229 573.814 160.229H581.512C582.523 160.229 583.084 160.201 583.193 160.146C583.202 160.096 583.212 160.007 583.221 159.88C583.23 159.748 583.239 159.65 583.248 159.586C583.248 159.472 583.369 159.415 583.61 159.415H583.665C583.929 159.415 584.062 159.508 584.062 159.695L584.089 162.696C584.089 162.883 583.943 162.977 583.651 162.977C583.364 162.977 583.221 162.863 583.221 162.635V161.151C583.089 161.115 582.51 161.097 581.484 161.097H579.468C579.336 161.334 579.27 162.25 579.27 163.845V168.992C579.27 170.168 579.336 170.756 579.468 170.756H581.402C581.589 170.756 581.683 170.911 581.683 171.221C581.683 171.526 581.589 171.679 581.402 171.679L578.183 171.624ZM588.594 171.624L585.483 171.679C585.278 171.679 585.176 171.526 585.176 171.221C585.176 170.911 585.287 170.756 585.511 170.756H587.336C587.354 170.701 587.363 170.394 587.363 169.833V162.751C587.363 161.794 587.315 161.243 587.22 161.097H585.654C585.408 161.097 585.285 160.944 585.285 160.639C585.285 160.329 585.36 160.174 585.511 160.174C585.511 160.174 586.5 160.192 588.478 160.229L594.753 160.174C594.789 160.101 594.808 159.914 594.808 159.613C594.808 159.445 594.958 159.36 595.259 159.36H595.341C595.619 159.36 595.758 159.454 595.758 159.641L595.73 162.751C595.73 162.92 595.571 163.004 595.252 163.004C594.938 163.004 594.78 162.92 594.78 162.751V161.213C594.438 161.135 593.254 161.097 591.226 161.097H589.626C589.59 161.229 589.571 161.687 589.571 162.471V165.212C589.571 165.435 589.619 165.547 589.715 165.547H590.665C592.729 165.547 593.878 165.501 594.11 165.41V164.234C594.11 164.084 594.258 164.009 594.555 164.009C594.855 164.009 595.006 164.075 595.006 164.207L594.979 165.827L595.006 167.509C595.006 167.641 594.855 167.707 594.555 167.707C594.258 167.707 594.11 167.614 594.11 167.427V166.449C593.91 166.354 593.153 166.306 591.841 166.306H589.797C589.697 166.306 589.633 166.317 589.605 166.34C589.583 166.363 589.574 166.495 589.578 166.736C589.583 166.973 589.587 167.331 589.592 167.81C589.601 168.284 589.608 168.655 589.612 168.924C589.617 169.188 589.624 169.452 589.633 169.717C589.651 170.223 589.678 170.505 589.715 170.564L595.566 170.503C595.676 170.503 595.74 170.487 595.758 170.455C595.776 170.423 595.785 170.327 595.785 170.168V168.575C595.785 168.407 595.926 168.322 596.209 168.322H596.318C596.619 168.322 596.77 168.407 596.77 168.575L596.742 171.405C596.742 171.588 596.601 171.679 596.318 171.679L588.594 171.624ZM598.335 171.679C598.112 171.679 598 171.526 598 171.221C598 170.911 598.084 170.756 598.253 170.756H599.907C600.017 170.241 600.071 167.32 600.071 161.992V161.097H598.479C598.273 161.097 598.171 160.944 598.171 160.639C598.171 160.329 598.273 160.174 598.479 160.174L601.192 160.229L604.077 160.146C605.968 160.146 607.484 160.641 608.623 161.63C609.812 162.66 610.407 164.152 610.407 166.107C610.407 168.249 609.532 169.819 607.782 170.817C606.775 171.392 605.633 171.679 604.357 171.679L601.056 171.624L598.335 171.679ZM602.286 169.778C602.286 170.339 602.304 170.674 602.341 170.783C602.482 170.806 602.806 170.817 603.312 170.817C603.817 170.817 604.294 170.765 604.74 170.66C605.187 170.555 605.57 170.414 605.889 170.236C606.212 170.054 606.497 169.835 606.743 169.58C606.994 169.325 607.197 169.058 607.352 168.78C607.507 168.498 607.634 168.192 607.734 167.864C607.908 167.281 607.994 166.686 607.994 166.08C607.994 165.474 607.942 164.932 607.837 164.453C607.732 163.97 607.557 163.512 607.311 163.079C607.069 162.646 606.764 162.275 606.395 161.965C605.588 161.295 604.478 160.96 603.065 160.96C602.769 160.96 602.555 160.969 602.423 160.987C602.332 161.379 602.286 162.004 602.286 162.86V169.778Z" fill="#EEAD50"/>
<line x1="163" y1="49.5" x2="237" y2="49.5" stroke="black"/>
<line x1="393" y1="49.5" x2="467" y2="49.5" stroke="black"/>
</svg>
